<?xml version="1.0" encoding="utf-8"?>
<!-- Generator: Adobe Illustrator 24.0.1, SVG Export Plug-In . SVG Version: 6.00 Build 0)  -->
<svg version="1.1" id="Layer_1" xmlns="http://www.w3.org/2000/svg" xmlns:xlink="http://www.w3.org/1999/xlink" x="0px" y="0px"
	 viewBox="0 0 30 30" style="enable-background:new 0 0 30 30;" xml:space="preserve">
<style type="text/css">
	.st0{fill:#923A96;}
	.st1{opacity:0.22;}
	.st2{fill:#FFFFFF;}
</style>
<circle class="st0" cx="15" cy="15" r="14.6"/>
<path class="st1" d="M15,20c-5.6,0-10.6-2.5-14-6.4c-0.1,0.5-0.1,1-0.1,1.5c0,7.8,6.3,14.1,14.1,14.1s14.1-6.3,14.1-14.1
	c0-0.5,0-1-0.1-1.5C25.6,17.5,20.6,20,15,20z"/>
<path class="st2" d="M23,15.1c0,1.6,0,2.7-0.1,3.3c-0.1,1.4-0.5,2.6-1.3,3.3c-0.8,0.8-1.9,1.2-3.3,1.3c-0.6,0-1.7,0.1-3.3,0.1
	s-2.7,0-3.3-0.1c-1.4-0.1-2.6-0.5-3.3-1.3C7.5,21,7.1,19.9,7,18.4c0-0.6,0-1.7,0-3.3s0-2.7,0.1-3.3c0.1-1.4,0.5-2.6,1.3-3.3
	c0.8-0.8,1.9-1.2,3.3-1.3c0.6,0,1.7-0.1,3.3-0.1s2.7,0,3.3,0.1c1.4,0.1,2.6,0.5,3.3,1.3c0.8,0.8,1.2,1.9,1.3,3.3
	C22.9,12.4,23,13.5,23,15.1z M15.8,8.6c-0.5,0-0.7,0-0.8,0c0,0-0.3,0-0.8,0s-0.8,0-1.1,0s-0.6,0-1,0S11.3,8.7,11,8.7
	c-0.3,0.1-0.5,0.1-0.7,0.2C9.9,9,9.6,9.2,9.4,9.5c-0.3,0.3-0.5,0.6-0.6,0.9c-0.1,0.2-0.1,0.4-0.2,0.7c-0.1,0.3-0.1,0.7-0.1,1.1
	c0,0.4,0,0.8,0,1s0,0.6,0,1.1s0,0.7,0,0.8s0,0.3,0,0.8c0,0.5,0,0.8,0,1.1c0,0.2,0,0.6,0,1s0.1,0.8,0.1,1.1c0.1,0.3,0.1,0.5,0.2,0.7
	c0.1,0.3,0.3,0.7,0.6,0.9c0.3,0.3,0.6,0.5,0.9,0.6c0.2,0.1,0.4,0.1,0.7,0.2s0.7,0.1,1.1,0.1c0.4,0,0.8,0,1,0s0.6,0,1.1,0
	s0.7,0,0.8,0c0,0,0.3,0,0.8,0c0.5,0,0.8,0,1.1,0c0.2,0,0.6,0,1,0s0.8-0.1,1.1-0.1c0.3-0.1,0.5-0.1,0.7-0.2c0.3-0.1,0.7-0.3,0.9-0.6
	c0.3-0.3,0.5-0.6,0.6-0.9c0.1-0.2,0.1-0.4,0.2-0.7c0.1-0.3,0.1-0.7,0.1-1.1s0-0.8,0-1s0-0.6,0-1.1s0-0.7,0-0.8s0-0.3,0-0.8
	s0-0.8,0-1.1c0-0.2,0-0.6,0-1s-0.1-0.8-0.1-1.1c-0.1-0.3-0.1-0.5-0.2-0.7c-0.1-0.3-0.3-0.7-0.6-0.9C20.3,9.2,20,9,19.7,8.9
	c-0.2-0.1-0.4-0.1-0.7-0.2c-0.3-0.1-0.7-0.1-1.1-0.1s-0.8,0-1,0C16.6,8.6,16.3,8.6,15.8,8.6z M17.9,12.2c0.8,0.8,1.2,1.8,1.2,2.9
	s-0.4,2.1-1.2,2.9c-0.8,0.8-1.8,1.2-2.9,1.2s-2.1-0.4-2.9-1.2c-0.8-0.8-1.2-1.8-1.2-2.9s0.4-2.1,1.2-2.9c0.8-0.8,1.8-1.2,2.9-1.2
	C16.1,11,17.1,11.4,17.9,12.2z M16.9,17c0.5-0.5,0.8-1.1,0.8-1.9c0-0.7-0.3-1.4-0.8-1.9s-1.1-0.8-1.9-0.8c-0.7,0-1.4,0.3-1.9,0.8
	s-0.8,1.1-0.8,1.9c0,0.7,0.3,1.4,0.8,1.9s1.1,0.8,1.9,0.8C15.7,17.8,16.3,17.5,16.9,17z M19.9,10.2c0.2,0.2,0.3,0.4,0.3,0.7
	s-0.1,0.5-0.3,0.7c-0.2,0.2-0.4,0.3-0.7,0.3c-0.3,0-0.5-0.1-0.7-0.3s-0.3-0.4-0.3-0.7s0.1-0.5,0.3-0.7c0.2-0.2,0.4-0.3,0.7-0.3
	S19.7,10,19.9,10.2z"/>
</svg>
