<?xml version="1.0" encoding="utf-8"?>
<!-- Generator: Adobe Illustrator 24.0.1, SVG Export Plug-In . SVG Version: 6.00 Build 0)  -->
<svg version="1.1" id="Layer_1" xmlns="http://www.w3.org/2000/svg" xmlns:xlink="http://www.w3.org/1999/xlink" x="0px" y="0px"
	 viewBox="0 0 30 30" style="enable-background:new 0 0 30 30;" xml:space="preserve">
<style type="text/css">
	.st0{fill:#2376C7;}
	.st1{opacity:0.22;}
	.st2{fill:#FFFFFF;}
</style>
<circle class="st0" cx="15" cy="15" r="14.6"/>
<path class="st1" d="M15,20c-5.6,0-10.6-2.5-14-6.4c-0.1,0.5-0.1,1-0.1,1.5c0,7.8,6.3,14.1,14.1,14.1s14.1-6.3,14.1-14.1
	c0-0.5,0-1-0.1-1.5C25.6,17.5,20.6,20,15,20z"/>
<g>
	<path class="st2" d="M18.3,23.2c-0.1,0-0.3,0-0.4-0.1l-4.3-2.9l-2.3,1.7c-0.3,0.1-0.5,0.1-0.7,0s-0.4-0.3-0.4-0.5L9,17l-4.2-1.6
		c-0.3-0.1-0.4-0.4-0.4-0.6s0.2-0.5,0.4-0.6l15.9-6.3c0.1,0,0.1,0,0.2-0.1H21c0.2,0,0.3,0.1,0.4,0.2l0,0c0.1,0.1,0.2,0.3,0.2,0.4
		v0.1v0.1l-2.7,14.1c0,0.2-0.2,0.4-0.4,0.5C18.4,23.2,18.3,23.2,18.3,23.2z M13.9,18.8l3.9,2.6l2.1-11l-7.5,7.3L13.9,18.8L13.9,18.8
		z M10.7,18.2l0.5,2l1.1-0.8l-1.5-1C10.8,18.3,10.7,18.2,10.7,18.2z M6.9,14.8l2.9,1.1c0.2,0.1,0.4,0.3,0.4,0.5l0.4,1.4
		c0-0.2,0.1-0.3,0.2-0.4l7.2-6.9L6.9,14.8z"/>
</g>
</svg>
