<?xml version="1.0" encoding="utf-8"?>
<!-- Generator: Adobe Illustrator 24.0.1, SVG Export Plug-In . SVG Version: 6.00 Build 0)  -->
<svg version="1.1" id="Layer_1" xmlns="http://www.w3.org/2000/svg" xmlns:xlink="http://www.w3.org/1999/xlink" x="0px" y="0px"
	 viewBox="0 0 30 30" style="enable-background:new 0 0 30 30;" xml:space="preserve">
<style type="text/css">
	.st0{fill:#39B54A;}
	.st1{opacity:0.22;}
	.st2{fill:#FFFFFF;}
</style>
<circle class="st0" cx="15" cy="15" r="14.6"/>
<path class="st1" d="M15,20c-5.6,0-10.6-2.5-14-6.4c-0.1,0.5-0.1,1-0.1,1.5c0,7.8,6.3,14.1,14.1,14.1s14.1-6.3,14.1-14.1
	c0-0.5,0-1-0.1-1.5C25.6,17.5,20.6,20,15,20z"/>
<path class="st2" d="M12.1,7.5c1-0.4,2-0.6,3-0.6c1.1,0,2.1,0.2,3,0.6c1,0.4,1.8,1,2.5,1.7s1.3,1.5,1.7,2.5c0.4,1,0.6,2,0.6,3
	c0,1.1-0.2,2.1-0.6,3c-0.4,1-1,1.8-1.7,2.5C20,21,19.1,21.6,18.2,22c-1,0.4-2,0.6-3,0.6c-1.4,0-2.6-0.3-3.8-1L7,23l1.4-4.2
	c-0.7-1.2-1.1-2.6-1.1-4c0-1.1,0.2-2.1,0.6-3c0.4-1,1-1.8,1.7-2.5C10.3,8.5,11.1,8,12.1,7.5z M15.1,21.3c0.9,0,1.7-0.2,2.5-0.5
	s1.5-0.8,2.1-1.4s1-1.3,1.4-2.1s0.5-1.7,0.5-2.5s-0.2-1.7-0.5-2.5s-0.8-1.5-1.4-2.1s-1.3-1-2.1-1.4S16,8.2,15.1,8.2
	s-1.7,0.2-2.5,0.5s-1.5,0.8-2.1,1.4c-0.6,0.6-1,1.3-1.4,2.1c-0.3,0.8-0.5,1.7-0.5,2.5c0,1.4,0.4,2.7,1.2,3.8L9,21l2.5-0.8
	C12.6,20.9,13.8,21.3,15.1,21.3z M16.7,16.3c0.3-0.3,0.5-0.5,0.5-0.5c0.1,0,0.4,0.2,1,0.5c0.6,0.3,0.9,0.5,0.9,0.6c0,0,0,0.1,0,0.2
	c0,0.2-0.1,0.5-0.2,0.8s-0.4,0.5-0.7,0.7c-0.4,0.2-0.7,0.3-1.1,0.3s-1.1-0.2-2-0.6c-0.7-0.3-1.3-0.7-1.8-1.2s-1-1.1-1.5-1.9
	c-0.5-0.7-0.7-1.4-0.7-2v-0.1c0-0.6,0.3-1.2,0.8-1.6c0.2-0.2,0.3-0.2,0.5-0.2c0,0,0.1,0,0.2,0c0.1,0,0.1,0,0.2,0
	c0.1,0,0.2,0,0.3,0.1c0.1,0,0.1,0.1,0.2,0.3c0.1,0.1,0.2,0.4,0.3,0.9c0.2,0.5,0.3,0.7,0.3,0.8s-0.1,0.3-0.4,0.6
	c-0.2,0.3-0.4,0.4-0.4,0.5c0,0,0,0.1,0.1,0.2c0.2,0.5,0.6,1,1.1,1.4c0.4,0.4,0.9,0.7,1.6,1c0.1,0,0.2,0.1,0.2,0.1
	C16.2,16.8,16.4,16.6,16.7,16.3z"/>
</svg>
