<?xml version="1.0" encoding="utf-8"?>
<!-- Generator: Adobe Illustrator 24.0.0, SVG Export Plug-In . SVG Version: 6.00 Build 0)  -->
<svg version="1.1" id="Layer_1" xmlns="http://www.w3.org/2000/svg" xmlns:xlink="http://www.w3.org/1999/xlink" x="0px" y="0px"
	 viewBox="0 0 270 85" style="enable-background:new 0 0 270 85;" xml:space="preserve">
<style type="text/css">
	.st0{fill:url(#SVGID_1_);}
	.st1{fill:#004E26;}
	.st2{fill:#FFFFFF;stroke:#006633;stroke-width:0.8089;stroke-miterlimit:10;}
</style>
<radialGradient id="SVGID_1_" cx="68.25" cy="43.998" r="41.75" gradientTransform="matrix(1 0 0 -1 0 86.598)" gradientUnits="userSpaceOnUse">
	<stop  offset="0" style="stop-color:#00733B"/>
	<stop  offset="5.786937e-02" style="stop-color:#00703A"/>
	<stop  offset="0.6289" style="stop-color:#005B2D"/>
	<stop  offset="1" style="stop-color:#005329"/>
</radialGradient>
<path class="st0" d="M64.5,82.8L28.1,46.4c-2.1-2.1-2.1-5.4,0-7.5L64.5,2.4c2.1-2.1,5.4-2.1,7.5,0l36.4,36.4c2.1,2.1,2.1,5.4,0,7.5
	L72.1,82.8C70,84.9,66.6,84.9,64.5,82.8z"/>
<path class="st1" d="M31,70.3l-3.2-6.8c1-0.2,1.7-1,1.7-2c0-0.9-0.6-1.6-1.3-1.9V43.9h-1.4v15.6c-0.8,0.3-1.3,1-1.3,1.9
	c0,1,0.7,1.9,1.7,2L24,70.2L31,70.3L31,70.3z"/>
<g>
	<polygon class="st2" points="19.7,36.8 10,36.8 10,28.2 6,28.2 6,50.4 10,50.4 10,40.5 19.7,40.5 19.7,50.4 23.7,50.4 23.7,28.2 
		19.7,28.2 	"/>
	<path class="st2" d="M57,34H45.2v0.6c0.1,5.9-0.7,10.1-2.3,12.5h-1.7v2.7l-0.1-0.2c-0.3-0.5-0.5-1.1-0.6-1.6
		c-0.1-0.4-0.2-1.5-0.2-4.5V40c0-1.2,0-2-0.1-2.5c-0.2-0.8-0.5-1.5-0.9-2s-1.1-1-2-1.3s-2-0.5-3.4-0.5s-2.6,0.2-3.7,0.6
		c-1.1,0.4-2,1-2.5,1.7c-0.6,0.7-1,1.7-1.2,2.9l-0.1,0.6L30,40l0.1-0.5c0.2-0.9,0.6-1.6,1.1-1.9c0.5-0.3,1.3-0.5,2.3-0.5
		c1.1,0,2,0.2,2.5,0.7c0.3,0.3,0.5,0.9,0.5,1.8c0,0,0,0.1,0,0.2c-0.9,0.3-2.3,0.5-4.1,0.7c-1,0.1-1.8,0.3-2.4,0.4
		c-0.7,0.2-1.4,0.5-2,0.9s-1.1,1-1.5,1.7C26.1,44.2,26,45,26,45.8c0,1.4,0.5,2.6,1.5,3.6c1,0.9,2.4,1.4,4.3,1.4
		c1.1,0,2.1-0.2,3.1-0.5c0.7-0.3,1.4-0.7,2.1-1.2c0.1,0.4,0.2,0.7,0.4,1.1l0.2,0.3h3.7v4.3h3.3v-4.3h10.8v4.3h3.3v-7.6H57V34z
		 M36.6,43L36.6,43c0,1.1-0.1,1.9-0.4,2.4c-0.3,0.6-0.8,1.2-1.5,1.5c-0.7,0.4-1.5,0.6-2.4,0.6c-0.8,0-1.5-0.2-1.9-0.5
		s-0.6-0.8-0.6-1.3c0-0.3,0.1-0.6,0.3-0.9c0.2-0.3,0.4-0.5,0.8-0.6c0.3-0.1,0.8-0.3,2.1-0.5C34.5,43.6,35.6,43.3,36.6,43z
		 M53.3,37.3v9.8h-6.6c1.1-2.3,1.7-5.6,1.9-9.8H53.3z"/>
	<path class="st2" d="M74.8,44.8L71,44.3l-0.2,0.4c-0.3,1-0.8,1.7-1.4,2.1c-0.6,0.4-1.3,0.6-2.1,0.6c-1.1,0-2-0.4-2.8-1.2
		c-0.6-0.7-1-1.6-1.2-2.8h11.3v-0.6c0-0.3,0-0.6,0-0.7c0-2.7-0.7-4.8-2.1-6.3s-3.2-2.3-5.4-2.3c-2.3,0-4.1,0.8-5.6,2.3
		c-1.4,1.5-2.1,3.7-2.1,6.4c0,2.6,0.7,4.7,2.1,6.2c1.4,1.5,3.3,2.2,5.7,2.2c1.9,0,3.5-0.5,4.7-1.4s2.1-2.3,2.6-4L74.8,44.8z
		 M63.6,40.2c0.2-0.9,0.5-1.6,1.1-2.2c0.7-0.7,1.6-1,2.6-1c1.2,0,2,0.4,2.7,1.3c0.4,0.4,0.6,1.1,0.8,1.9H63.6z"/>
	<path class="st2" d="M109.9,34H98.1v0.6c0.1,5.9-0.7,10.1-2.3,12.5h-1.7v0.4l-1.6-2.7c-0.8-1.3-1.6-2.3-2.5-2.8
		c0.3-0.2,0.5-0.4,0.7-0.6c0.4-0.4,0.8-1.2,1.2-2.2c0.5-1.4,0.8-1.6,0.8-1.7c0,0,0.2-0.1,0.9-0.1h1.3V34h-1.5c-1.2,0-2,0.2-2.6,0.7
		s-1.1,1.4-1.8,3c-0.8,2-1.2,2.4-1.3,2.6c-0.1,0.1-0.3,0.2-0.7,0.3V34h-3.8v6.6c-0.3,0-0.6-0.1-0.7-0.3c-0.2-0.2-0.5-0.7-1.3-2.6
		c-0.6-1.3-1-2.1-1.3-2.6c-0.4-0.5-0.9-0.8-1.4-1c-0.8,0-1.5-0.1-2.6-0.1h-1v3.3h0.6c0.4,0,0.6,0,0.7,0c0.5,0,0.7,0.1,0.8,0.1
		c0,0,0.2,0.1,0.4,0.7c0.6,1.7,1.1,2.6,1.5,3.1c0.2,0.3,0.5,0.5,0.8,0.8c-0.9,0.6-1.7,1.5-2.5,2.8l-3.4,5.6H78l2.9-5
		c0.6-1.1,1.1-1.5,1.3-1.7c0.2-0.1,0.4-0.2,0.6-0.3v7h3.8v-7c0.2,0.1,0.4,0.1,0.6,0.3s0.7,0.6,1.3,1.7l2.9,5h2.5v4.3h3.3v-4.3H108
		v4.3h3.3v-7.6h-1.7V34H109.9z M106.1,37.3v9.8h-6.6c1.1-2.3,1.7-5.6,1.9-9.8H106.1z"/>
	<path class="st2" d="M127.5,49.6L127.5,49.6c-0.3-0.5-0.5-1.1-0.6-1.6c-0.1-0.4-0.2-1.5-0.2-4.5V40c0-1.2,0-2-0.1-2.5
		c-0.2-0.8-0.5-1.5-0.9-2s-1.1-1-2-1.3s-2-0.5-3.4-0.5s-2.6,0.2-3.7,0.6c-1.1,0.4-2,1-2.5,1.7c-0.6,0.7-1,1.7-1.2,2.9l-0.1,0.6
		l3.7,0.5l0.1-0.5c0.2-0.9,0.6-1.6,1.1-1.9c0.5-0.3,1.3-0.5,2.3-0.5c1.1,0,2,0.2,2.5,0.7c0.3,0.3,0.5,0.9,0.5,1.8c0,0,0,0.1,0,0.2
		c-0.9,0.3-2.3,0.5-4.1,0.7c-1,0.1-1.8,0.3-2.4,0.4c-0.7,0.2-1.4,0.5-2,0.9s-1.1,1-1.5,1.7s-0.6,1.5-0.6,2.3c0,1.4,0.5,2.6,1.5,3.6
		c1,0.9,2.4,1.4,4.3,1.4c1.1,0,2.1-0.2,3.1-0.5c0.7-0.3,1.4-0.7,2.1-1.2c0.1,0.4,0.2,0.7,0.4,1.1l0.2,0.3h4.1L127.5,49.6z M122.9,43
		L122.9,43c0,1.1-0.1,1.9-0.4,2.4c-0.3,0.6-0.8,1.2-1.5,1.5c-0.7,0.4-1.5,0.6-2.4,0.6c-0.8,0-1.5-0.2-1.9-0.5s-0.6-0.8-0.6-1.3
		c0-0.3,0.1-0.6,0.3-0.9c0.2-0.3,0.4-0.5,0.8-0.6c0.3-0.1,0.8-0.3,2.1-0.5C120.8,43.6,122,43.3,122.9,43z"/>
</g>
</svg>
