<?xml version="1.0" encoding="utf-8"?>
<!-- Generator: Adobe Illustrator 23.0.4, SVG Export Plug-In . SVG Version: 6.00 Build 0)  -->
<svg version="1.1" id="Layer_1" xmlns="http://www.w3.org/2000/svg" xmlns:xlink="http://www.w3.org/1999/xlink" x="0px" y="0px"
	 viewBox="0 0 500 300" style="enable-background:new 0 0 500 300;" xml:space="preserve">
<style type="text/css">
	.st0{fill:#CCE404;}
	.st1{fill:#DADADA;}
	.st2{clip-path:url(#SVGID_2_);}
	.st3{fill:#2B2924;}
	.st4{fill:#997450;}
	.st5{fill:#F7CEAF;}
	.st6{fill:#E8BDAC;}
	.st7{fill:#FFE5CB;}
	.st8{fill:#E6E7E8;}
	.st9{fill:#878787;}
	.st10{fill:#87A5AF;}
	.st11{fill:#57BE28;}
	.st12{fill:#FFFFFF;}
	.st13{fill:#706F6F;}
	.st14{fill:#575756;}
	.st15{fill:#E8AF93;}
	.st16{fill:#DBA18F;}
	.st17{fill:#F9CFB3;}
	.st18{fill:#5F5C54;}
	.st19{fill:#BAD1DD;}
	.st20{fill:#E4F4FF;}
</style>
<rect x="-8.8" y="-5.8" class="st0" width="521.8" height="313.1"/>
<polygon class="st1" points="513,307.3 343.9,307.3 147.3,-5.8 513,-5.8 "/>
<title>1</title>
<g>
	<g>
		<g>
			<g>
				<g>
					<g>
						<g>
							<g>
								<g>
									<g>
										<g>
											<defs>
												<polygon id="SVGID_1_" points="8.8,87.3 -3.1,-105.9 258.3,17 500,-105.9 500,262 142.6,262 												"/>
											</defs>
											<clipPath id="SVGID_2_">
												<use xlink:href="#SVGID_1_"  style="overflow:visible;"/>
											</clipPath>
											<g class="st2">
												<g>
													<g>
														<g id="OBJECTS">
															<g id="_4">
																<path class="st3" d="M150.8,55.5l1.9-2L150.8,55.5z"/>
																<path class="st4" d="M231.1,92.6c-0.2-3.1-0.4-6.4-0.8-9.5c-3.7-26.6-26.3-49-54.8-43.6
																	c-7.1,1.4-17.8,3.2-20.9,11.1c-12.7-1-18.3,17.7-19.9,27.4c-0.3,2-0.6,4-0.8,5.9c-1,9.3-0.5,18.6,0,27.9
																	c0.4,8.3,2.2,17.8,6.8,24.9c3.5,5.5,8.9,13.5,14.8,16.7c12.3,6.6,25.6,5.9,38.8,3.9c6.6-1,13.4-1.3,19.1-5.4
																	c7.1-5.1,10.6-9.9,12.9-18.5C230,120.2,231.7,106.4,231.1,92.6z"/>
																<path class="st5" d="M161.5,157.2c-2,9.5,22.7,27.8,22.7,27.8l16.5-8.5l-39.2-39.8
																	C161.5,136.9,163.3,147.7,161.5,157.2z"/>
																<path class="st6" d="M207.4,132.6c1.7-11.5-45.9,4.3-45.9,4.3l41.3,42.3l8.2-18.7
																	C207.4,151.6,206.1,142.1,207.4,132.6z"/>
																<path class="st7" d="M208.1,132.3c2.5-3.3,3-7.1,3.4-11c0.2-1.7,1.8-2.2,3.2-3.1c2.9-2,3.7-3.9,4.5-8.3
																	c1.5-7.4,3-10-4.7-12.5c-14.3-4.7-31.9-10-44.7-18.8c-2.8-1.9-13.6-7-13.3-10.9c-0.8,7.8-4.9,13-8.8,19.4
																	c0,0,0,0,0,0.1c-1,2.5-2.4,4.8-4,7c-1,1.9-2,3.9-2.7,5.9c-0.3,1.4-0.3,2.8-0.1,4.3c0.3,2.3,1.9,13.6,7,13.9
																	c1.3,0.1,1.9,1.5,2.1,2.7c1.6,9,7.7,15.2,14.5,21.4l1.4,1.3c5.2,4.7,10.4,6.8,15.5,6.5c5.1,0.3,10.3-1.8,15.5-6.5
																	c0.9-0.8,2-1.8,2.9-2.6C202.9,138.5,205.6,135.5,208.1,132.3z"/>
																<path class="st8" d="M207.3,198.4c-5.1-6.7-12.8-13.9-21.5-16.2c-8.6,2.2-16.3,9.4-21.5,16.2
																	c-0.7,0.9-0.9,2.2-0.4,3.3l21.2,50c0.2,0.3,0.4,0.7,0.6,0.9c0.3-0.3,0.5-0.6,0.6-0.9l21.3-50
																	C208.2,200.5,208,199.3,207.3,198.4z"/>
																<path class="st9" d="M185.6,273.8c0-0.8,0.1-1.4,0.2-1.4c0.1,0,0,0.4,0,1.4h0.2l-0.1-28.1l-0.1,0.4
																	c-2-6.3-3.9-12.6-5.8-18.9c-6.6-21.4-13.1-42.7-19.6-64.1c0.3,0.9-12.8,9.1-14.4,9.7c-8.9,3.5-15.2,3.8-24.4,6.2
																	c-7.6,2-18.4,4.5-23.2,11.1c-4.6,6.2-7.1,49.4-4.6,83.6L185.6,273.8z"/>
																<path class="st10" d="M277.8,273.8c2.5-34.3,0-77.4-4.6-83.6c-4.8-6.6-15.5-9-23.2-11.1c-9.2-2.4-15.5-2.6-24.4-6.2
																	c-1.6-0.6-14.7-8.8-14.4-9.7c-6.6,21.4-13.1,42.7-19.6,64.1l-5.6,18.5v28.1L277.8,273.8z"/>
																<path class="st11" d="M197.2,232.2l-7.4-33.7c-0.2-1,0-2.2,0.5-3.1l2.8-5.3c0.1-0.3,0-0.7-0.2-0.9l-3.2-3.2
																	c-0.8-0.6-1.6-1.5-2.1-2.4c-0.3-0.7-1.1-2.2-2.1-1.6s-1.1,1.5-1.7,2.2c-0.6,0.7-1.4,1.5-2.1,2.1
																	c-0.9,0.9-2,1.9-2.9,2.9c-0.2,0.2-0.3,0.6-0.2,0.9l2.8,5.3c0.5,0.9,0.6,2.1,0.4,3.1l-7.5,33.7c0,0.2,0,0.3,0,0.5
																	l10.3,26.5c0.6,0.6,1.6,0.6,2.2,0l10.3-26.5C197.4,232.5,197.4,232.4,197.2,232.2z"/>
																<path class="st12" d="M215.9,173.6l-5.5-16l-4.5,8.1c-5.1,7.1-16.1,14.3-20,14.4c-4-0.1-14.5-7-20-14.4l-4.5-8.1
																	l-5.5,16c-0.1,0.2-0.1,0.5,0,0.7l10.2,33c0.3,0.9,1.6,5.8,2.1,0.3l5.7-9.9c0.6-1.1,1.5-2.3,2.3-3.2l9.8-12.2
																	l9.8,12.2c0.8,1,1.7,2.1,2.3,3.2l5.7,9.9c0.5,5.5,1.8,0.6,2.1-0.3l10.1-33C215.9,174.1,215.9,173.9,215.9,173.6z"/>
																<path class="st13" d="M214.6,193.7l12.8,1.4c-1.4-4.1-4.3-24-8-26l-7.2-5.8L196.8,209l-11,36l-11-36l-15.3-45.8
																	l-7.2,5.8c-3.8,2-6.7,21.9-8,26l12.8-1.4l-9.4,16.8c-0.8,1.5,34.9,50.2,38.1,61.5c5-12.6,38.9-60,38.1-61.5
																	L214.6,193.7z"/>
																<path class="st14" d="M220.9,100.9l-1.1-3.1l-7.4,1.5c-0.3-0.5-0.6-0.9-1-1.5c-2.5-2.6-7-4.2-12.6-4.2
																	s-12,1.6-14.8,5l-0.1-0.1c-2.5,1.5-5.5,1.5-8,0l-0.1,0.1c-2.8-3.4-9.4-5-14.8-5s-10.2,1.5-12.6,4.2
																	c-0.4,0.4-0.7,0.9-1,1.5L141,98l-0.6,3.1l6.2,1c0,0.5,0,1,0,1.6c0.6,7.5,7.8,11.5,14.7,11.5h0.5
																	c1.3,0,2.5-0.2,3.8-0.5c5.2-1.4,9.4-5.2,11.3-10.2c0.3-0.6,0.4-1.4,0.4-2.1c1.8,0.5,3.7,0.5,5.5,0
																	c0,0.7,0.2,1.5,0.4,2.1c1.9,5,6.1,8.9,11.3,10.2c1.3,0.3,2.5,0.5,3.8,0.5h0.5c6.9,0,14.2-4,14.7-11.5
																	c0-0.5,0-1,0-1.6L220.9,100.9z M173.9,103.4c-1.6,4.2-5,7.3-9.3,8.5c-1,0.2-2.1,0.4-3.1,0.4H161
																	c-5.5,0-11.3-3-11.7-8.7c-0.1-1.4,0.3-2.6,1.3-3.5c1.9-2,5.7-3.1,10.4-3.1c5.7,0,11.1,1.8,12.6,4.1
																	C174.2,101.6,174.2,102.6,173.9,103.4L173.9,103.4z M198.7,112.2h-0.4c-1,0-2.1-0.2-3.1-0.4
																	c-4.3-1.1-7.7-4.3-9.3-8.5c-0.3-0.8-0.3-1.8,0.2-2.5c1.7-2.4,7-4.1,12.6-4.1c4.7,0,8.6,1.3,10.4,3.1
																	c0.9,0.9,1.4,2.3,1.3,3.5C209.9,109.2,204.1,112.2,198.7,112.2L198.7,112.2z"/>
																<polygon class="st15" points="270.4,153.1 299.1,179.4 308.2,169 270.4,131.4 																"/>
																<polygon class="st16" points="323,125.5 270.4,128.6 270.4,131.4 308.2,169 323,152.2 																"/>
																<path class="st17" d="M342.8,83.1c-0.1-1.9-1-4.9-3.4-3.1c-1,0.8-0.5,2.7-1.6,3.4c-2.5,1.6-2.7-2-2.8-3.5
																	c-0.6-6.1,2.1-11.9,1.4-17.8c-1-8.3-8.8-14-16.1-16.8c-7.8-2.7-16.4-2.8-24.2-0.2c-7.9-2.6-16.5-2.6-24.3,0.2
																	c-7.4,2.8-15.1,8.5-16.1,16.8c-0.7,5.9,2,11.8,1.4,17.8c-0.2,1.6-0.4,5.2-2.8,3.5c-1-0.6-0.5-2.6-1.6-3.4
																	c-2.4-1.8-3.3,1.4-3.4,3.1c-0.5,6.8,0.7,13.5,3.5,19.6c1.7,3.4,4.1,4.4,6.4,6.9c2.6,2.7,2.2,8.1,3.1,11.6
																	c0.6,2.3,1.7,4.4,3,6.4c2.9,4,7.9,5.8,11.2,9.5c3.1,3.3,5.9,6.8,10.2,9c2.6,1.4,6.2,1.4,9.4,1.3
																	c3.3,0.2,6.9,0.1,9.4-1.3c4.3-2.2,7.1-5.5,10.2-9c3.3-3.7,8.3-5.5,11.2-9.5c1.4-1.9,2.4-4.1,3-6.4
																	c0.9-3.4,0.5-8.9,3.1-11.6c2.3-2.5,4.7-3.4,6.4-6.9C342.1,96.6,343.3,89.8,342.8,83.1z"/>
																<path class="st18" d="M252.2,74.9c0.9,3,1.3,6.3,1,9.5c0,0.4,0,1.3,0,1.9h4.4c0-0.9,0-1.8,0-2.3
																	c-0.1-2.3-0.1-4.7,0.1-7c0.2-3.3-0.2-6.8,0.1-10.1c0.8-8.8,8.3-14.9,16.7-15.7c6.2-0.5,12.3,0.7,18.5,0.8
																	c7.6,0,11.1-3.7,17-7.4c1.6-1,0.6-1.1,2.3-0.7c1,0.3,2.5,1.8,3.4,2.3c5.6,3.4,15.9,6.9,17.5,14.3
																	c1.3,5.7,1,11.7,0.8,17.5c-0.4,2.7-0.5,5.5-0.5,8.2h3.4c1-3.5,2.5-8.3,2.9-10.2c1.5-7.4,1-10.7,1.5-13.9
																	c1.3-11.3,1.9-22-5.1-31.4c-7.4-10.1-18.5-16-24.3-15.2c-0.3,0-4.3,0.4-3.8,0.8c-2.1-1.9-5.7-2-8.3-2.6
																	c-13.8-3.2-31.2,5.3-41.2,14.4c-10.5,9.7-9,22.1-7.8,34C251.1,66.2,251.1,70.9,252.2,74.9z"/>
																<path class="st19" d="M270.4,199.2c-0.2-1.9,25.3-28.6,25.3-28.6h3.2l24.1,26.9l-25.3,67.4L270.4,199.2z"/>
																<path class="st11" d="M309.9,227.5l-8.6-39c-0.3-1.3-0.1-2.6,0.5-3.7l3.2-6.2c0.1-0.4,0.1-0.8-0.2-1l-3.8-3.8
																	c-0.9-0.7-1.8-1.7-2.4-2.7c-0.3-0.8-1.4-2.6-2.5-1.8c-1.1,0.7-1.4,1.7-2,2.6c-0.7,0.8-1.6,1.7-2.5,2.5l-3.3,3.3
																	c-0.3,0.3-0.4,0.7-0.2,1l3.2,6.2c0.6,1.1,0.8,2.4,0.5,3.7l-8.6,39c-0.1,0.2-0.1,0.4,0,0.6l11.9,30.6
																	c0.7,0.7,1.9,0.7,2.5,0l0,0l11.9-30.6C309.9,227.9,309.9,227.7,309.9,227.5z"/>
																<path class="st9" d="M187.3,273.8h107.9l-0.1-22.5L275.5,186l-8.3-27.4l-0.8,0.3c-2.1,0.6-7.6,2.3-14.6,4.4
																	c-18.8,5.7-48.2,14.6-48.9,15.1c-0.8,0.5-7.7,14.7-13.5,26.7c-1.3,2.5-1.9,5.2-1.9,7.9L187.3,273.8z"/>
																<path class="st9" d="M405.5,213.5c0-3.9-0.9-7.7-2.6-11.3c-5.5-11.3-11.7-23.6-12.3-24c-0.8-0.5-30.2-9.4-48.9-15.1
																	l-14.6-4.4l-0.9-0.3l-11.6,37.3l-18.3,58.9v0.6l-1.1-3.9l0.1,22.5h110.2V213.5L405.5,213.5z"/>
																<path class="st20" d="M323.4,144.8l-26.1,23.5c-0.4,0.3-1,0.3-1.4,0l-26.1-23.5l-5.8,17.1l11.3,37.3l20.5-28.8
																	c0.3-0.5,0.9-0.6,1.5-0.2c0.1,0.1,0.2,0.1,0.2,0.2l20.5,28.8l11.3-37.3L323.4,144.8z"/>
																<path class="st13" d="M249.3,188.2l44.5,85.6h5.2l45.2-85.6l-13.8-5.7l15.8-7.7c-1.3-4-2.8-7.8-4.5-11.7l-14.6-4.4
																	l-12.5,36.9l-4,11.9L296,250.7l-13.1-43.2l-7.3-21.6l-9.2-27.2c-2.1,0.6-7.6,2.3-14.6,4.4
																	c-1.7,3.9-3.2,7.7-4.5,11.7l15.8,7.7L249.3,188.2z"/>
															</g>
														</g>
													</g>
												</g>
											</g>
										</g>
									</g>
								</g>
							</g>
						</g>
					</g>
				</g>
			</g>
		</g>
	</g>
</g>
</svg>
