<?xml version="1.0" encoding="utf-8"?>
<!-- Generator: Adobe Illustrator 23.0.4, SVG Export Plug-In . SVG Version: 6.00 Build 0)  -->
<svg version="1.1" id="OBJECTS" xmlns="http://www.w3.org/2000/svg" xmlns:xlink="http://www.w3.org/1999/xlink" x="0px" y="0px"
	 viewBox="0 0 357 300" style="enable-background:new 0 0 357 300;" xml:space="preserve">
<style type="text/css">
	.st0{fill:#36891B;}
	.st1{fill:#186D00;}
	.st2{fill:#EDEDED;}
	.st3{fill:#C6C6C6;}
	.st4{fill:#D1AB86;}
	.st5{fill:#FFE2C2;}
	.st6{fill:#FFF8F8;}
	.st7{fill:#DADADA;}
	.st8{fill:#57BE28;}
	.st9{fill:#6B4A3B;}
</style>
<rect x="-9.2" y="-9.6" class="st0" width="375.4" height="319.2"/>
<polygon class="st1" points="366.2,309.6 -9.2,309.6 -9.2,306.3 366.2,-9.6 "/>
<title>1</title>
<g>
	<g>
		<polygon class="st2" points="93.7,132.7 57.9,132.1 53.9,133.2 52.4,134 52.8,135.1 63.9,169 67.2,178.1 85.6,178.1 87.3,169.6 
			97,135.2 97.4,133.8 		"/>
	</g>
</g>
<g>
	<g>
		<path class="st3" d="M52.8,135.1c-10.1,13.1-26.4,15.1-29.3,31l-0.9,12.1h44.6L64,169L52.8,135.1z"/>
	</g>
</g>
<g>
	<g>
		<path class="st3" d="M85.6,178.1h43l-0.9-12.1c-2.2-10.8-14.5-16.1-30.7-30.8l-9.7,34.4L85.6,178.1z"/>
	</g>
</g>
<g>
	<g>
		<path class="st4" d="M86.8,116.2h-3.6H64.4c-3.9,0-7,2.8-7,6.2v15.9c0,3.4,3.1,6.2,7,6.2h22.4c3.4,0,6.2-2.1,6.8-4.9
			c0.1,0,0.1,0,0.2,0v-1.2v-0.3v-15.5C93.8,119,90.7,116.2,86.8,116.2z"/>
	</g>
</g>
<g>
	<g>
		<path class="st5" d="M108.4,87c-0.9-0.3-1.9,0.4-2.8,1.6c0-0.6,0-1.2,0-1.8c0-19.9-13.5-36-30-36c-16.6,0-30,16.1-30,36
			c0,0.6,0,1.2,0,1.8c-1-1.3-2-1.9-2.8-1.6c-2.1,0.7-2.8,6.2-1.4,12.4c1.3,6.2,4.1,10.7,6.2,10c0.7-0.2,1.3-1.1,1.7-2.4
			c5.1,14.9,15,28.3,26.4,28.3S96.9,121.8,102,107c0.4,1.3,0.9,2.1,1.7,2.4c2.1,0.7,4.9-3.8,6.2-10C111.2,93.2,110.6,87.6,108.4,87z
			"/>
	</g>
</g>
<g>
	<g>
		<path class="st6" d="M57.1,133.6c0,0,0.6,5.6,10.8,8.7c10.2,3.1,3.4,10.2,3.4,10.2l-8,1.7l-4.7-9.2l-2-7L57.1,133.6z"/>
	</g>
</g>
<g>
	<g>
		<path class="st6" d="M94.1,134.6c0,0-0.6,5.6-10.8,8.7c-10.2,3.1-3.4,10.2-3.4,10.2l8,1.7l4.7-9.2l2-7L94.1,134.6z"/>
	</g>
</g>
<g>
	<g>
		<polygon class="st7" points="54.4,132.7 43.3,139.3 63.9,169 		"/>
	</g>
</g>
<g>
	<g>
		<polygon class="st7" points="97,132.5 108.6,141.3 87.3,169.6 		"/>
	</g>
</g>
<g>
	<g>
		<g>
			<polygon class="st8" points="74.2,156.6 68.7,178.1 83.8,178.1 77.6,156.6 			"/>
		</g>
	</g>
	<g>
		<g>
			<polygon class="st8" points="71.4,143.9 80.4,144.1 82,150.7 80.2,157.4 71.7,157.4 69.7,151.1 			"/>
		</g>
	</g>
</g>
<g>
	<g>
		<path class="st9" d="M43.6,114.3c-6.3-10.1-8.5-20.8-6.9-29.6c2.8-13.1,8-23.4,16-30.6c1.4-8.7,6.5-13.6,16.8-13.4
			c25.9,1.7,39.7,16.9,45,41.6c1.6,8.8-0.6,19.5-6.9,29.6c-6.8,13.4-2.7,23.6,3.8,37.8c-16.7-5.1-27.6-10.8-24.3-17.9
			c9.3-20.8,19.4-39.7,6-57.5c-4.4-0.1-23.9,13.9-35.8,4c-11.6,17.4-2,36,6.6,55.9c3.3,7.1-7.6,12.7-24.3,17.9
			C46.3,137.9,50.4,127.7,43.6,114.3z"/>
	</g>
</g>
<g>
	<g>
		<polygon class="st2" points="294.9,132.1 256.1,131.6 251.7,132.7 250.2,133.5 250.5,134.6 262.6,168.5 266.1,177.6 286.1,177.6 
			288,169.1 298.5,134.7 298.9,133.3 		"/>
	</g>
</g>
<g>
	<g>
		<path class="st3" d="M250.5,134.6c-18.6,3.7-32.9,12-32.9,25.4l-1.5,17.7h50l-3.5-9.2L250.5,134.6z"/>
	</g>
</g>
<g>
	<g>
		<path class="st3" d="M286.1,177.6h48.3l-1.5-17.7c0-12.9-15.1-21.4-34.4-25.2L288,169.1L286.1,177.6z"/>
	</g>
</g>
<g>
	<g>
		<path class="st4" d="M287.4,116.8h-3.9h-20.4c-4.2,0-7.6,2.7-7.6,5.9V138c0,3.3,3.4,5.9,7.6,5.9h24.3c3.6,0,6.7-2,7.4-4.7
			c0.1,0,0.1,0,0.2-0.1V138v-0.3v-14.9C295,119.5,291.6,116.8,287.4,116.8z"/>
	</g>
</g>
<g>
	<g>
		<path class="st5" d="M310.9,88.7c-1-0.3-2,0.3-3.1,1.5c0-0.6,0-1.2,0-1.8c0-19.1-14.6-34.6-32.6-34.6s-32.6,15.5-32.6,34.6
			c0,0.6,0,1.2,0,1.8c-1-1.2-2.1-1.8-3.1-1.5c-2.3,0.6-3,6-1.5,11.9c1.4,5.9,4.5,10.3,6.8,9.6c0.8-0.2,1.4-1,1.8-2.3
			c5.5,14.3,16.3,27.2,28.6,27.2c12.3,0,23-12.9,28.6-27.2c0.4,1.2,1,2.1,1.8,2.3c2.3,0.6,5.3-3.7,6.8-9.6
			C313.9,94.7,313.2,89.3,310.9,88.7z"/>
	</g>
</g>
<g>
	<g>
		<path class="st6" d="M255.3,133c0,0,0.6,5.6,11.7,8.7c11.1,3.1,3.7,10.2,3.7,10.2l-8.7,1.7l-5.1-9.2l-2.2-7L255.3,133z"/>
	</g>
</g>
<g>
	<g>
		<path class="st6" d="M295.3,134.1c0,0-0.6,5.6-11.7,8.7c-11.1,3.1-3.7,10.2-3.7,10.2l8.7,1.7l5.1-9.2l2.2-7L295.3,134.1z"/>
	</g>
</g>
<g>
	<g>
		<polygon class="st7" points="251.9,130.6 242.1,135.2 262.6,168.5 		"/>
	</g>
</g>
<g>
	<g>
		<polygon class="st7" points="298.7,131.3 308.5,135.8 288,169.1 		"/>
	</g>
</g>
<g>
	<g>
		<polygon class="st8" points="274,155.9 268.5,177.5 283.6,177.5 277.4,155.9 		"/>
	</g>
</g>
<g>
	<g>
		<polygon class="st8" points="271.2,143.3 280.2,143.4 281.8,150.1 280,156.8 271.5,156.8 269.5,150.5 		"/>
	</g>
</g>
<g>
	<g>
		<path class="st9" d="M295.2,61c4.3-21.6-60.3-20.5-52.5,29.3l4,17.7c0,0,25-14.6,43.3-37.5c6.8,3.1,10.7,8.9,12,22.9l1.9,14.7
			l4-17.7C307.8,90.2,313.4,54.4,295.2,61z"/>
	</g>
</g>
<g>
	<g>
		<path class="st2" d="M172.8,251.1l-38-60.7l19.9-14.8l49.3,3.5l18.7,17.6l-42.3,58.8C178,254,175.4,252.5,172.8,251.1z"/>
	</g>
</g>
<g>
	<g>
		<path class="st3" d="M208.2,182.7l14.3,3.6c0,0,22.2,3.5,26.3,9.6c7.3,4.7,7.9,63.1,6.4,63.3c-1.5,0.2-69.1,0-69.1,0
			c-2.5-1.8-5.1-3.4-7.7-4.9v-0.1L208.2,182.7z"/>
	</g>
</g>
<g>
	<g>
		<path class="st3" d="M148.6,182.7l-14.3,3.6c0,0-22.2,3.5-26.3,9.6c-7.4,4.7-7.9,63.1-6.4,63.3s88.8,0,88.8,0
			c2.5-1.8-6.7-2.7-12-4.9v-0.1L148.6,182.7z"/>
	</g>
</g>
<g>
	<g>
		<rect x="156.2" y="151.8" class="st4" width="44.2" height="34.5"/>
	</g>
</g>
<g>
	<g>
		<g>
			<path class="st5" d="M142.6,129.7c2.7,26.7,22.9,46.5,35.7,46.5c13.7,0,32.5-20.4,35.7-46.5c3.1-25.5-16-38.5-35.7-38.5
				S140,104.2,142.6,129.7z"/>
		</g>
	</g>
	<g>
		<g>
			<path d="M215.3,103.5c-2.9-10.2-12.7-22-25.1-25C179.8,76,161.1,73,145.3,89c-2.1,2.1-6.7,18.5-6.2,23.2
				c1.8,16.9,3.4,21.6,3.4,21.6l4.2,2c0,0-2.1-5.8,0.7-13.8c0.7-2.2,1.8-4.2,2.9-6.1c10.5,5.8,30.8-0.6,43,1
				c8.8,1.2,10.4,11.1,15.6,11.3c0.4,4.6-0.6,7.6-0.6,7.6l4.2-2c0,0,0.5-1.4,1.2-5.5c1,0,1.6,0,1.6,0S218.8,115.7,215.3,103.5z"/>
		</g>
	</g>
	<g>
		<g>
			<g>
				<path class="st5" d="M210.8,133.9c-1.9,5.3-3.3,10.5-1.1,11.2c2.2,0.8,7.2-3.1,9-8.5c1.9-5.3,1.6-10.3-0.6-11
					C216,124.9,212.7,128.6,210.8,133.9z"/>
			</g>
		</g>
	</g>
	<g>
		<g>
			<g>
				<path class="st5" d="M145.8,133.9c1.9,5.3,3.3,10.5,1.1,11.2c-2.2,0.8-7.2-3.1-9-8.5c-1.9-5.3-1.6-10.3,0.6-11
					C140.7,124.9,144,128.6,145.8,133.9z"/>
			</g>
		</g>
	</g>
</g>
<g>
	<g>
		<g>
			<polygon class="st8" points="167.2,192.1 178.4,201.4 189.5,192.1 178.4,182.7 			"/>
		</g>
	</g>
	<g>
		<g>
			<polygon class="st8" points="180.4,199.2 186.9,231.2 178.4,254.2 168.8,231.2 176.2,199.2 			"/>
		</g>
	</g>
</g>
<g>
	<g>
		<g>
			<path class="st6" d="M202,169l-23.6,13.7l7.8,16.6l18.5-17.1c0,0,4.9-1.3,3.2-3.4C206.2,176.6,202.3,174.6,202,169z"/>
		</g>
	</g>
	<g>
		<g>
			<path class="st6" d="M154.7,169.1l23.6,13.7l-7.8,16.5l-18.4-17c0,0-4.8-1.3-3.2-3.4C150.5,176.6,154.4,174.7,154.7,169.1z"/>
		</g>
	</g>
</g>
<g>
	<g>
		<polygon class="st7" points="178.4,254.2 205.4,176.2 214.5,183.9 223.9,189 212.3,208.3 207,208.2 210.4,219.4 		"/>
	</g>
</g>
<g>
	<g>
		<polygon class="st7" points="178.3,254.2 151.3,176.2 142.2,183.3 131.9,189 144.4,208.3 149.7,208.2 146.3,219.4 		"/>
	</g>
</g>
</svg>
