<?xml version="1.0" encoding="utf-8"?>
<!-- Generator: Adobe Illustrator 23.0.4, SVG Export Plug-In . SVG Version: 6.00 Build 0)  -->
<svg version="1.1" id="OBJECTS" xmlns="http://www.w3.org/2000/svg" xmlns:xlink="http://www.w3.org/1999/xlink" x="0px" y="0px"
	 viewBox="0 0 357 300" style="enable-background:new 0 0 357 300;" xml:space="preserve">
<style type="text/css">
	.st0{fill:#36891B;}
	.st1{fill:#186D00;}
	.st2{fill:#185500;}
	.st3{fill:#F7F7F9;}
	.st4{fill:#E6E6E7;}
	.st5{fill:#CCE404;}
	.st6{fill:#57BE28;}
</style>
<rect x="-9.2" y="-9.6" class="st0" width="375.4" height="319.2"/>
<polygon class="st1" points="366.2,309.6 -9.2,309.6 -9.2,306.3 366.2,-9.6 "/>
<title>1</title>
<path class="st2" d="M156.1,132.9v-10.7c0-6-4.8-10.8-10.8-10.8h-53c-6,0-10.8,4.8-10.8,10.8v28.7v110.2c0,6,4.8,10.8,10.8,10.8H275
	c6,0,10.8-4.8,10.8-10.8V154.5c0-6-4.8-10.8-10.8-10.8H166.9C160.9,143.7,156.1,138.9,156.1,132.9z"/>
<path class="st3" d="M154.4,186.3l-0.3-156.6c0-0.8,0.6-1.4,1.4-1.4l123.3-0.2c0.8,0,1.4,0.6,1.4,1.4l0.3,156.6
	c0,0.8-0.6,1.4-1.4,1.4l-123.3,0.2C155,187.7,154.4,187,154.4,186.3z"/>
<rect x="181.6" y="82.2" transform="matrix(1 -1.883959e-03 1.883959e-03 1 -0.1564 0.42)" class="st4" width="82.5" height="2"/>
<rect x="167.2" y="93" transform="matrix(1 -1.883807e-03 1.883807e-03 1 -0.1767 0.4064)" class="st4" width="96.9" height="2"/>
<rect x="167.2" y="105.2" transform="matrix(1 -1.883355e-03 1.883355e-03 1 -0.1996 0.4063)" class="st4" width="96.9" height="2"/>
<rect x="167.2" y="118.5" transform="matrix(1 -1.883356e-03 1.883356e-03 1 -0.2247 0.4064)" class="st4" width="96.9" height="2"/>
<g>
	<rect x="167.3" y="144.2" transform="matrix(1 -1.883938e-03 1.883938e-03 1 -0.2732 0.3729)" class="st4" width="61" height="2"/>
	<rect x="167.2" y="132" transform="matrix(1 -1.883938e-03 1.883938e-03 1 -0.2502 0.3727)" class="st4" width="61" height="2"/>
	
		<rect x="167.3" y="154.9" transform="matrix(1 -1.883356e-03 1.883356e-03 1 -0.2932 0.4066)" class="st4" width="96.9" height="2"/>
	
		<rect x="167.3" y="167.1" transform="matrix(1 -1.883808e-03 1.883808e-03 1 -0.3163 0.4067)" class="st4" width="96.9" height="2"/>
	
		<rect x="167.3" y="180.5" transform="matrix(1 -1.883807e-03 1.883807e-03 1 -0.3415 0.4068)" class="st4" width="96.9" height="2"/>
</g>
<rect x="166.5" y="40.8" transform="matrix(1 -1.883493e-03 1.883493e-03 1 -0.1061 0.4083)" class="st5" width="100.4" height="31.5"/>
<rect x="233.1" y="122.5" transform="matrix(1 -1.883697e-03 1.883697e-03 1 -0.258 0.4677)" class="st6" width="30.1" height="29.4"/>
<path class="st5" d="M145.8,132.9v-10.7c0-6-4.8-10.8-10.8-10.8H82c-6,0-10.8,4.8-10.8,10.8v28.7v110.2c0,6,4.8,10.8,10.8,10.8
	h182.6c6,0,10.8-4.8,10.8-10.8V154.5c0-6-4.8-10.8-10.8-10.8h-108C150.6,143.7,145.8,138.9,145.8,132.9z"/>
</svg>
