<?xml version="1.0" encoding="utf-8"?>
<!-- Generator: Adobe Illustrator 23.0.4, SVG Export Plug-In . SVG Version: 6.00 Build 0)  -->
<svg version="1.1" id="OBJECTS" xmlns="http://www.w3.org/2000/svg" xmlns:xlink="http://www.w3.org/1999/xlink" x="0px" y="0px"
	 viewBox="0 0 357 300" style="enable-background:new 0 0 357 300;" xml:space="preserve">
<style type="text/css">
	.st0{fill:#36891B;}
	.st1{fill:#186D00;}
	.st2{fill:#B8B8BD;}
	.st3{fill:#FFFFFF;}
	.st4{fill:#DADADA;}
	.st5{fill:#6B6566;}
	.st6{fill:none;stroke:#E9E8E6;stroke-width:6.0031;stroke-linecap:round;stroke-miterlimit:10;}
	.st7{fill:#57BE28;}
	.st8{fill:#C4C4C4;}
	.st9{fill:#E9E8E6;}
</style>
<rect x="-9.2" y="-9.6" class="st0" width="375.4" height="319.2"/>
<polygon class="st1" points="366.2,309.6 -9.2,309.6 -9.2,306.3 366.2,-9.6 "/>
<title>1</title>
<rect x="131.4" y="213.3" class="st2" width="91.2" height="47.1"/>
<path class="st3" d="M305,204c0,11.6-9.4,21-21,21H73c-11.6,0-21-9.4-21-21V54.8c0-11.6,9.4-21,21-21h211c11.6,0,21,9.4,21,21V204z"
	/>
<rect x="66.7" y="57.3" class="st4" width="220.7" height="138.3"/>
<path class="st5" d="M172.3,45c0-2.5,2-4.5,4.5-4.5s4.5,2,4.5,4.5s-2,4.5-4.5,4.5S172.3,47.5,172.3,45z"/>
<path class="st5" d="M166.6,210.1c0-2.5,4.5-4.5,10.1-4.5s10.1,2,10.1,4.5s-4.5,4.5-10.1,4.5C171.2,214.6,166.6,212.6,166.6,210.1z"
	/>
<path class="st3" d="M228.5,260.8c0,3-2.4,5.4-5.4,5.4H131c-3,0-5.4-2.4-5.4-5.4v-0.9c0-3,2.4-5.4,5.4-5.4h92.1c3,0,5.4,2.4,5.4,5.4
	V260.8z"/>
<line class="st6" x1="176.8" y1="174.6" x2="176.8" y2="174.6"/>
<path class="st7" d="M158.3,176.9c-1.6-0.1-2.9-1.6-2.8-3.2l0,0c0.1-1.7,1.6-2.9,3.2-2.8l0,0c1.6,0.1,2.9,1.6,2.8,3.2l0,0
	c-0.1,1.6-1.4,2.8-3,2.8l0,0C158.5,177,158.4,176.9,158.3,176.9z M191.7,174.1c-0.1-1.7,1.1-3.1,2.8-3.2l0,0l0,0l0,0
	c1.7-0.1,3.1,1.1,3.2,2.8l0,0c0.1,1.6-1.1,3.1-2.8,3.2l0,0c-0.1,0-0.1,0-0.2,0l0,0C193.1,176.9,191.8,175.7,191.7,174.1z
	 M140.3,174.7c-1.6-0.3-2.8-1.8-2.5-3.4l0,0c0.3-1.6,1.8-2.7,3.4-2.5l0,0c1.6,0.3,2.7,1.8,2.5,3.5l0,0c-0.2,1.5-1.5,2.5-3,2.5l0,0
	C140.6,174.8,140.4,174.8,140.3,174.7z M209.6,172.3c-0.3-1.6,0.8-3.2,2.5-3.5l0,0l0,0l0,0c1.6-0.3,3.2,0.8,3.4,2.5l0,0
	c0.3,1.6-0.8,3.2-2.5,3.4l0,0c-0.2,0-0.3,0-0.5,0l0,0C211.1,174.8,209.8,173.7,209.6,172.3z M227.2,168.8c-0.5-1.6,0.5-3.2,2.1-3.7
	l0,0c1.6-0.5,3.2,0.5,3.7,2.1l0,0c0.4,1.6-0.5,3.3-2.1,3.7l0,0c-0.3,0.1-0.5,0.1-0.8,0.1l0,0C228.7,171,227.5,170.1,227.2,168.8z
	 M122.4,170.8c-1.6-0.4-2.5-2.1-2.1-3.7l0,0c0.5-1.6,2.1-2.5,3.7-2.1l0,0l0,0l0,0c1.6,0.4,2.5,2.1,2.1,3.7l0,0
	c-0.4,1.3-1.6,2.2-2.9,2.2l0,0C123,170.9,122.7,170.9,122.4,170.8z M244.2,163.1c-0.7-1.5-0.1-3.3,1.4-4l0,0c1.5-0.7,3.3,0,4,1.5
	l0,0c0.7,1.5,0,3.3-1.5,4l0,0c-0.4,0.2-0.8,0.3-1.3,0.3l0,0C245.8,164.9,244.7,164.2,244.2,163.1z M105.1,164.5L105.1,164.5
	c-1.5-0.7-2.1-2.5-1.4-4l0,0c0.7-1.5,2.5-2.1,4-1.4l0,0c1.5,0.7,2.1,2.5,1.4,4l0,0c-0.5,1.1-1.6,1.7-2.7,1.7l0,0
	C106,164.8,105.5,164.7,105.1,164.5z M259.7,154.1c-1.2-1.2-1.2-3.1-0.1-4.2l0,0c1.2-1.2,3.1-1.2,4.2-0.1l0,0
	c1.2,1.1,1.2,3.1,0.1,4.2l0,0c-0.6,0.6-1.4,0.9-2.2,0.9l0,0C261,155,260.3,154.7,259.7,154.1z M89.4,153.9c-1.1-1.2-1.1-3.1,0.1-4.2
	l0,0c1.2-1.2,3.1-1.1,4.2,0.1l0,0c1.1,1.2,1.1,3.1-0.1,4.2l0,0c-0.6,0.5-1.3,0.8-2.1,0.8l0,0C90.8,154.8,90,154.5,89.4,153.9z
	 M263.7,136.7c-0.5-1.6,0.3-3.3,1.9-3.8l0,0c1.6-0.5,3.3,0.3,3.8,1.9l0,0c0.5,1.6-0.3,3.3-1.9,3.8l0,0c-0.3,0.1-0.6,0.1-0.9,0.1l0,0
	C265.3,138.7,264.1,137.9,263.7,136.7z M86,138.4c-1.6-0.5-2.4-2.2-1.9-3.8l0,0c0.5-1.6,2.2-2.4,3.8-1.9l0,0
	c1.6,0.5,2.4,2.2,1.9,3.8l0,0c0,0,0,0,0,0l0,0c-0.4,1.2-1.6,2-2.8,2l0,0C86.6,138.5,86.3,138.5,86,138.4z M253.2,125.1
	c-1.4-0.9-1.8-2.8-0.9-4.1l0,0c0.9-1.4,2.8-1.8,4.2-0.9l0,0c1.4,0.9,1.8,2.8,0.9,4.1l0,0c-0.6,0.9-1.5,1.4-2.5,1.4l0,0
	C254.3,125.6,253.7,125.5,253.2,125.1z M96.3,124.1c-0.9-1.4-0.5-3.2,0.9-4.2l0,0c1.4-0.9,3.2-0.5,4.1,0.9l0,0
	c0.9,1.4,0.5,3.2-0.9,4.1l0,0c-0.5,0.3-1.1,0.5-1.6,0.5l0,0C97.8,125.5,96.8,125,96.3,124.1z M237.7,117.7L237.7,117.7L237.7,117.7
	c-1.6-0.6-2.4-2.3-1.8-3.8l0,0c0.6-1.6,2.3-2.4,3.8-1.8h0c1.6,0.6,2.4,2.3,1.8,3.8l0,0c-0.4,1.2-1.6,2-2.8,2l0,0
	C238.4,117.9,238,117.9,237.7,117.7z M112.2,115.9c-0.6-1.6,0.3-3.3,1.8-3.8v0c1.6-0.6,3.3,0.2,3.8,1.8l0,0c0.6,1.6-0.3,3.3-1.8,3.8
	l0,0c-0.3,0.1-0.7,0.2-1,0.2l0,0C113.8,117.9,112.6,117.1,112.2,115.9z M220.8,113c-1.6-0.4-2.7-2-2.3-3.6l0,0
	c0.3-1.6,1.9-2.7,3.6-2.3l0,0c1.6,0.4,2.7,2,2.3,3.6l0,0c-0.3,1.4-1.5,2.4-2.9,2.4l0,0C221.2,113.1,221,113,220.8,113z M129.3,110.7
	c-0.4-1.6,0.7-3.2,2.3-3.6l0,0c1.6-0.4,3.2,0.7,3.6,2.3l0,0c0.4,1.6-0.7,3.2-2.3,3.6l0,0c-0.2,0.1-0.4,0.1-0.6,0.1l0,0
	C130.9,113,129.6,112.1,129.3,110.7z M203.4,110.1c-1.7-0.2-2.8-1.7-2.6-3.3l0,0c0.2-1.6,1.7-2.8,3.3-2.6l0,0
	c1.7,0.2,2.8,1.7,2.6,3.3l0,0c-0.2,1.5-1.5,2.6-3,2.6l0,0C203.6,110.1,203.5,110.1,203.4,110.1z M147,107.5c-0.2-1.6,1-3.1,2.6-3.3
	l0,0c1.6-0.2,3.1,1,3.3,2.6l0,0c0.2,1.7-1,3.1-2.6,3.3l0,0c-0.1,0-0.2,0-0.3,0l0,0C148.5,110.1,147.2,109,147,107.5z M185.7,108.8
	c-1.7-0.1-3-1.5-2.9-3.1l0,0c0.1-1.7,1.5-3,3.1-2.9l0,0c1.7,0.1,3,1.4,2.9,3.1l0,0c-0.1,1.6-1.4,2.9-3,2.9l0,0
	C185.8,108.8,185.8,108.8,185.7,108.8z M164.9,105.9c-0.1-1.7,1.2-3,2.9-3.1l0,0c1.6-0.1,3,1.2,3.1,2.9l0,0c0.1,1.7-1.2,3.1-2.9,3.1
	l0,0l0,0l0,0c0,0-0.1,0-0.1,0l0,0C166.3,108.8,164.9,107.5,164.9,105.9z"/>
<line class="st7" x1="176.8" y1="174.6" x2="176.8" y2="174.6"/>
<polygon class="st3" points="207.9,160.3 143.2,160.3 143.2,80.9 196.6,80.9 207.9,91.3 "/>
<polyline class="st2" points="196.8,81.2 195.9,92 206.8,91.2 "/>
<rect x="152" y="139.7" class="st8" width="47.1" height="8.8"/>
<rect x="152" y="125" class="st8" width="47.1" height="5.9"/>
<rect x="152" y="110.3" class="st9" width="47.1" height="5.9"/>
<rect x="152" y="95.6" class="st9" width="47.1" height="5.9"/>
</svg>
