<?xml version="1.0" encoding="utf-8"?>
<!-- Generator: Adobe Illustrator 23.0.4, SVG Export Plug-In . SVG Version: 6.00 Build 0)  -->
<svg version="1.1" id="OBJECTS" xmlns="http://www.w3.org/2000/svg" xmlns:xlink="http://www.w3.org/1999/xlink" x="0px" y="0px"
	 viewBox="0 0 357 300" style="enable-background:new 0 0 357 300;" xml:space="preserve">
<style type="text/css">
	.st0{fill:#36891B;}
	.st1{fill:#186D00;}
	.st2{fill:#F2F2F2;}
	.st3{fill:#FFFFFF;}
	.st4{fill:#C0E76B;}
	.st5{fill:#E6E6E6;}
	.st6{fill:#CCE404;}
	.st7{fill:#1A1A1A;}
	.st8{fill:#B7C2C3;}
	.st9{fill:#688689;}
	.st10{fill:#153E49;}
	.st11{opacity:0.28;fill:#12161B;enable-background:new    ;}
	.st12{fill:#88D12A;}
</style>
<rect x="-9.2" y="-9.6" class="st0" width="375.4" height="319.2"/>
<polygon class="st1" points="366.2,309.6 -9.2,309.6 -9.2,306.3 366.2,-9.6 "/>
<title>1</title>
<path class="st2" d="M96.8,69.1h163.3l0.1-0.1c7.1-8.5,7.1-20.9,0-29.4l-0.1-0.1h-11.4H96.8l0.8,0.9c7.6,8.2,7.3,20.9-0.7,28.7
	L96.8,69.1z"/>
<path class="st3" d="M227.6,260.5H78.5V57c0-9.5,7.7-17.2,17.2-17.2h145.9c0,0,15.1-0.9,14.8,0c-10.6,0.2-10.1,29.7-10.1,29.7v172.3
	C246.3,252.2,238,260.5,227.6,260.5z"/>
<path class="st2" d="M227.4,260.5c-6.7,0-163.3,0-163.3,0l-0.1-0.1c-7.1-8.5-7.1-20.9,0-29.4l0.1-0.1h163.3l-0.8,0.9
	C219,239.9,217.7,253.8,227.4,260.5C227.4,260.5,234.1,260.5,227.4,260.5z"/>
<rect x="114.8" y="72.8" class="st4" width="101.5" height="8.5"/>
<rect x="185" y="217.8" class="st4" width="45.4" height="2.8"/>
<rect x="100.7" y="97.3" class="st5" width="129.7" height="3.5"/>
<rect x="100.7" y="114.4" class="st5" width="129.7" height="3.5"/>
<rect x="100.7" y="131.4" class="st5" width="129.7" height="3.5"/>
<rect x="100.7" y="148.4" class="st5" width="129.7" height="3.5"/>
<rect x="100.7" y="165.4" class="st5" width="129.7" height="3.5"/>
<rect x="100.7" y="199.5" class="st5" width="129.7" height="3.5"/>
<rect x="100.7" y="182.5" class="st5" width="129.7" height="3.5"/>
<polygon class="st6" points="245.1,198.1 237.6,193.6 242.7,181.8 291.6,100.3 302.4,106.9 253.6,188.3 "/>
<path class="st6" d="M297.7,116.7l-12.9-7.7c-0.2-0.1-0.3-0.5-0.2-0.7l23.4-39c0.1-0.2,0.5-0.3,0.7-0.2l12.9,7.7
	c0.2,0.1,0.3,0.5,0.2,0.7l-23.4,39C298.3,116.7,298,116.8,297.7,116.7z"/>
<path class="st7" d="M320.6,82l-0.4-0.2l-15.3-9.2c-0.2-0.1-0.4-0.1-0.6,0.1l-1,1.6c-0.1,0.2-0.1,0.4,0.1,0.6l15,9
	c0.2,0.1,0.3,0.4,0.1,0.6l-13,21.6c-0.1,0.2-0.1,0.4,0.1,0.6l1.6,0.9c0.2,0.1,0.4,0.1,0.6-0.1l14.3-23.9c0.1-0.2,0.1-0.4-0.1-0.6
	L320.6,82z"/>
<polygon class="st6" points="237.9,206.5 233.2,203.7 242.7,181.8 253.6,188.3 "/>
<polygon class="st8" points="237.9,206.5 233.2,203.7 230.8,205.3 228.7,214.8 229.9,215.6 237.5,209.2 "/>
<path class="st9" d="M253.8,189.5l-12.4-7.5c-0.3-0.2-0.4-0.6-0.2-1l0,0c0.2-0.3,0.6-0.4,1-0.2l12.4,7.5c0.3,0.2,0.4,0.6,0.2,1l0,0
	C254.6,189.6,254.1,189.7,253.8,189.5z"/>
<path class="st9" d="M252.8,191.2l-12.4-7.5c-0.3-0.2-0.4-0.6-0.2-1l0,0c0.2-0.3,0.6-0.4,1-0.2l12.4,7.5c0.3,0.2,0.4,0.6,0.2,1l0,0
	C253.6,191.3,253.1,191.4,252.8,191.2z"/>
<path class="st10" d="M233.7,209.9c-0.3,0.5-0.9,0.6-1.4,0.4c-0.5-0.3-0.6-0.9-0.4-1.4c0.3-0.5,0.9-0.6,1.4-0.4
	C233.9,208.8,234,209.4,233.7,209.9z"/>
<rect x="227.8" y="212.3" transform="matrix(0.5142 -0.8577 0.8577 0.5142 -70.0774 301.3231)" class="st10" width="6.3" height="0.5"/>
<polygon class="st11" points="286,109.7 296.9,116.2 290.9,126.2 "/>
<rect x="116.1" y="72.8" class="st12" width="14.3" height="8.5"/>
</svg>
