<?xml version="1.0" encoding="utf-8"?>
<!-- Generator: Adobe Illustrator 23.0.4, SVG Export Plug-In . SVG Version: 6.00 Build 0)  -->
<svg version="1.1" id="OBJECTS" xmlns="http://www.w3.org/2000/svg" xmlns:xlink="http://www.w3.org/1999/xlink" x="0px" y="0px"
	 viewBox="0 0 357 300" style="enable-background:new 0 0 357 300;" xml:space="preserve">
<style type="text/css">
	.st0{fill:#36891B;}
	.st1{fill:#186D00;}
	.st2{fill:#1D1D1B;}
	.st3{fill:#A2EDD4;}
	.st4{fill:#CCFEF8;}
	.st5{fill:#C0E76B;}
	.st6{fill:#575756;}
	.st7{fill:#57BE28;}
	.st8{fill:#CCE404;}
	.st9{fill:#FFFFFF;}
	.st10{fill:#F4BD31;}
	.st11{fill:#F2D453;}
</style>
<rect x="-9.2" y="-9.6" class="st0" width="375.4" height="319.2"/>
<polygon class="st1" points="366.2,309.6 -9.2,309.6 -9.2,306.3 366.2,-9.6 "/>
<title>1</title>
<path class="st2" d="M298.3,215.4c0,3.9-3.2,7.1-7.1,7.1H149c-3.9,0-7.1-3.2-7.1-7.1V26c0-3.9,3.2-7.1,7.1-7.1h142.2
	c3.9,0,7.1,3.2,7.1,7.1L298.3,215.4L298.3,215.4z"/>
<path class="st3" d="M278.1,33.6h-6.7h-8.7h-7.8h-15.3H162c-3.9,0-7.1,3.2-7.1,7.1v32.4c0,3.9,3.2,7.1,7.1,7.1h42.3h15.6h58.2
	c3.9,0,7.1-3.2,7.1-7.1V40.7C285.2,36.8,282.1,33.6,278.1,33.6z"/>
<path class="st4" d="M255.1,33.6h-15.3l-34.6,45.1c-0.4,0.5-0.7,1-0.9,1.5h15.6l34-44.3C254.5,35.2,254.9,34.4,255.1,33.6z"/>
<path class="st4" d="M245.7,61.6c1.5,1.2,3.7,0.9,4.8-0.6l21-27.3h-8.7l-17.8,23C243.9,58.3,244.2,60.4,245.7,61.6z"/>
<path class="st5" d="M285,199.7c0,3.9-3.2,7.1-7.1,7.1h-17.8c-3.9,0-7.1-3.2-7.1-7.1v-48.2c0-3.9,3.2-7.1,7.1-7.1h17.8
	c3.9,0,7.1,3.2,7.1,7.1V199.7z"/>
<path class="st6" d="M183.9,201.8c0,2.7-2.2,4.9-4.9,4.9h-18.8c-2.7,0-4.9-2.2-4.9-4.9V183c0-2.7,2.2-4.9,4.9-4.9H179
	c2.7,0,4.9,2.2,4.9,4.9V201.8z"/>
<path class="st6" d="M216.2,201.8c0,2.7-2.2,4.9-4.9,4.9h-18.8c-2.7,0-4.9-2.2-4.9-4.9V183c0-2.7,2.2-4.9,4.9-4.9h18.8
	c2.7,0,4.9,2.2,4.9,4.9V201.8z"/>
<path class="st6" d="M249.4,201.8c0,2.7-2.2,4.9-4.9,4.9h-18.8c-2.7,0-4.9-2.2-4.9-4.9V183c0-2.7,2.2-4.9,4.9-4.9h18.8
	c2.7,0,4.9,2.2,4.9,4.9V201.8z"/>
<path class="st6" d="M183.9,168.2c0,2.7-2.2,4.9-4.9,4.9h-18.8c-2.7,0-4.9-2.2-4.9-4.9v-18.8c0-2.7,2.2-4.9,4.9-4.9H179
	c2.7,0,4.9,2.2,4.9,4.9V168.2z"/>
<path class="st6" d="M216.2,168.2c0,2.7-2.2,4.9-4.9,4.9h-18.8c-2.7,0-4.9-2.2-4.9-4.9v-18.8c0-2.7,2.2-4.9,4.9-4.9h18.8
	c2.7,0,4.9,2.2,4.9,4.9V168.2z"/>
<path class="st6" d="M249.4,168.2c0,2.7-2.2,4.9-4.9,4.9h-18.8c-2.7,0-4.9-2.2-4.9-4.9v-18.8c0-2.7,2.2-4.9,4.9-4.9h18.8
	c2.7,0,4.9,2.2,4.9,4.9V168.2z"/>
<path class="st6" d="M183.5,134.4c0,2.7-2.2,4.9-4.9,4.9h-18.8c-2.7,0-4.9-2.2-4.9-4.9v-18.8c0-2.7,2.2-4.9,4.9-4.9h18.8
	c2.7,0,4.9,2.2,4.9,4.9V134.4z"/>
<path class="st6" d="M215.8,134.4c0,2.7-2.2,4.9-4.9,4.9H192c-2.7,0-4.9-2.2-4.9-4.9v-18.8c0-2.7,2.2-4.9,4.9-4.9h18.8
	c2.7,0,4.9,2.2,4.9,4.9v18.8H215.8z"/>
<path class="st6" d="M249,134.4c0,2.7-2.2,4.9-4.9,4.9h-18.8c-2.7,0-4.9-2.2-4.9-4.9v-18.8c0-2.7,2.2-4.9,4.9-4.9H244
	c2.7,0,4.9,2.2,4.9,4.9v18.8H249z"/>
<path class="st5" d="M285,117.7c0-3.9-3.2-7.1-7.1-7.1h-17.8c-3.9,0-7.1,3.2-7.1,7.1v14.5c0,3.9,3.2,7.1,7.1,7.1h17.8
	c3.9,0,7.1-3.2,7.1-7.1V117.7z"/>
<path class="st7" d="M249,95.8c0,3.9-3.2,7.1-7.1,7.1h-80c-3.9,0-7.1-3.2-7.1-7.1v-0.2c0-3.9,3.2-7.1,7.1-7.1h80
	c3.9,0,7.1,3.2,7.1,7.1V95.8z"/>
<path class="st5" d="M285,96.3c0,3.9-3.2,7.1-7.1,7.1h-15.8c-3.9,0-7.1-3.2-7.1-7.1v-0.7c0-3.9,3.2-7.1,7.1-7.1h15.8
	c3.9,0,7.1,3.2,7.1,7.1V96.3z"/>
<path class="st1" d="M63.2,127c-2.7,2.1-6.6,1.6-8.7-1l-10.1-12.9c-2.1-2.7-1.6-6.6,1-8.7l3.3-2.6c2.7-2.1,6.6-1.6,8.7,1l10.1,12.9
	c2.1,2.7,1.6,6.6-1,8.7L63.2,127z"/>
<path class="st8" d="M153,220.5c-0.2-0.6-0.5-1.3-1-1.8l-73-93.1l-4.3-5.5l-3.8-4.8c-0.1-0.1-0.2-0.2-0.2-0.3
	c-2.1-2.4-5.8-2.8-8.4-0.8l-7.9,6.2c-2.7,2.1-3.2,6-1,8.7l3.8,4.8l4.3,5.5l73,93.1c0.5,0.6,1,1.1,1.6,1.4c0.2,0.2,0.5,0.4,0.7,0.6
	c6.2,4.6,14.9,4.8,16.3,3.7C154.9,236.8,156.6,227.8,153,220.5z"/>
<path class="st9" d="M158,243.8c-0.9,0.7-2.2,0.5-2.9-0.3l-6.6-8.4c-0.7-0.9-0.5-2.2,0.3-2.9l0,0c0.9-0.7,2.2-0.5,2.9,0.3l6.6,8.4
	C159,241.8,158.9,243.1,158,243.8L158,243.8z"/>
<path class="st8" d="M153.1,238.2c1.8-1.4,3.5-10.4-0.1-17.7c-0.2-0.6-0.5-1.3-1-1.8l-73-93.1l-4.3-5.5l-3.8-4.8
	c-0.1-0.1-0.2-0.2-0.2-0.3l66.1,119.5C143,239.1,151.7,239.3,153.1,238.2z"/>
<rect x="56.9" y="126.3" transform="matrix(0.7869 -0.617 0.617 0.7869 -65.5465 69.6592)" class="st1" width="22.4" height="6.9"/>
<path class="st1" d="M94.3,159.2c-1.1,0.9-2.7,0.7-3.6-0.4L63,123.3c-0.9-1.1-0.7-2.7,0.4-3.6l0,0c1.1-0.9,2.7-0.7,3.6,0.4
	l27.8,35.4C95.6,156.7,95.4,158.3,94.3,159.2L94.3,159.2z"/>
<g>
	<path class="st10" d="M280.9,253.9c0-3.4-2-6.2-4.5-6.2h-52.5c-2.5,0-4.5,2.8-4.5,6.2v6.5c0,0.2,0,0.4,0,0.6c0,0.1,0,0.2,0,0.4
		c0,7.6,13.8,13.7,30.7,13.7c17,0,30.7-6.1,30.7-13.7c0-0.1,0-0.2,0-0.4c0-0.2,0-0.4,0-0.6v-6.5H280.9z"/>
	<path class="st11" d="M280.9,253c0,7.6-13.8,13.7-30.7,13.7c-17,0-30.7-6.1-30.7-13.7c0-7.6,13.8-13.7,30.7-13.7
		C267.1,239.3,280.9,245.4,280.9,253z"/>
</g>
<g>
	<path class="st10" d="M274.1,240.9c0-3.4-2-6.2-4.5-6.2h-52.5c-2.5,0-4.5,2.8-4.5,6.2v6.5c0,0.2,0,0.4,0,0.6c0,0.1,0,0.2,0,0.4
		c0,7.6,13.8,13.7,30.7,13.7c17,0,30.7-6.1,30.7-13.7c0-0.1,0-0.2,0-0.4s0-0.4,0-0.6v-6.5L274.1,240.9L274.1,240.9z"/>
	<path class="st11" d="M274.1,239.9c0,7.6-13.8,13.7-30.7,13.7c-17,0-30.7-6.1-30.7-13.7c0-7.6,13.8-13.7,30.7-13.7
		S274.1,232.4,274.1,239.9z"/>
</g>
<g>
	<path class="st10" d="M283.3,228c0-3.4-2-6.2-4.5-6.2h-52.5c-2.5,0-4.5,2.8-4.5,6.2v6.5c0,0.2,0,0.4,0,0.6c0,0.1,0,0.2,0,0.4
		c0,7.6,13.8,13.7,30.7,13.7c17,0,30.7-6.1,30.7-13.7c0-0.1,0-0.2,0-0.4s0-0.4,0-0.6V228H283.3z"/>
	<path class="st11" d="M283.3,227.1c0,7.6-13.8,13.7-30.7,13.7c-17,0-30.7-6.1-30.7-13.7c0-7.6,13.8-13.7,30.7-13.7
		C269.6,213.4,283.3,219.5,283.3,227.1z"/>
</g>
<path class="st10" d="M210.3,261.3c0.1-3.3-1.8-6-4.2-6.1l-50.7-1.1c-2.4-0.1-4.4,2.6-4.5,5.9l-0.1,6.3c0,0.2,0,0.4,0,0.6
	c0,0.1,0,0.2,0,0.4c-0.2,7.3,13,13.5,29.4,13.9s29.8-5.3,30-12.6c0-0.1,0-0.2,0-0.4c0-0.2,0-0.4,0-0.6L210.3,261.3z"/>
<path class="st11" d="M210.3,260.4c-0.2,7.3-13.6,12.9-30,12.6c-16.4-0.4-29.5-6.6-29.4-13.9c0.2-7.3,13.6-12.9,30-12.6
	C197.3,246.9,210.4,253.1,210.3,260.4z"/>
<path class="st10" d="M126.2,243.2c0-3.5-2-6.3-4.5-6.3H68.9c-2.5,0-4.5,2.8-4.5,6.3v6.6c0,0.2,0,0.4,0,0.6c0,0.1,0,0.2,0,0.4
	c0,7.6,13.8,13.8,30.9,13.8s30.9-6.2,30.9-13.8c0-0.1,0-0.2,0-0.4s0-0.4,0-0.6C126.2,249.8,126.2,243.2,126.2,243.2z"/>
<path class="st11" d="M126.2,242.3c0,7.6-13.8,13.8-30.9,13.8s-30.9-6.2-30.9-13.8s13.8-13.8,30.9-13.8S126.2,234.7,126.2,242.3z"/>
<path class="st10" d="M223,213.4c-2.4-2.3-5.7-2.8-7.4-1L180.4,249c-1.7,1.7-1.1,5,1.3,7.3l4.6,4.4c0.1,0.1,0.3,0.3,0.4,0.4
	c0.1,0.1,0.2,0.2,0.2,0.3c5.3,5.1,18.8-0.4,30.2-12.3c11.4-11.8,16.3-25.6,11.1-30.6c-0.1-0.1-0.2-0.2-0.3-0.2
	c-0.1-0.1-0.3-0.3-0.4-0.4L223,213.4z"/>
<path class="st11" d="M222.4,212.7c5.3,5.1,0.3,18.8-11.1,30.6c-11.4,11.8-24.9,17.3-30.2,12.3c-5.3-5.1-0.3-18.8,11.1-30.6
	C203.6,213.1,217.1,207.6,222.4,212.7z"/>
<path class="st10" d="M121.3,232.2c0-3.5-2-6.3-4.5-6.3H64c-2.5,0-4.5,2.8-4.5,6.3v6.6c0,0.2,0,0.4,0,0.6c0,0.1,0,0.2,0,0.4
	c0,7.6,13.8,13.8,30.9,13.8s30.9-6.2,30.9-13.8c0-0.1,0-0.2,0-0.4s0-0.4,0-0.6V232.2z"/>
<ellipse class="st11" cx="90.4" cy="231.3" rx="30.9" ry="13.8"/>
</svg>
