<?xml version="1.0" encoding="utf-8"?>
<!-- Generator: Adobe Illustrator 23.0.4, SVG Export Plug-In . SVG Version: 6.00 Build 0)  -->
<svg version="1.1" id="OBJECTS" xmlns="http://www.w3.org/2000/svg" xmlns:xlink="http://www.w3.org/1999/xlink" x="0px" y="0px"
	 viewBox="0 0 357 300" style="enable-background:new 0 0 357 300;" xml:space="preserve">
<style type="text/css">
	.st0{fill:#36891B;}
	.st1{fill:#186D00;}
	.st2{fill:#F4F4F4;}
	.st3{fill:#C4C4C4;}
	.st4{fill:#D8D8D8;}
	.st5{fill:#CCE404;}
	.st6{fill:#57BE28;}
	.st7{fill:#3C3C3B;}
	.st8{fill:#FFFFFF;}
</style>
<rect x="-9.2" y="-9.6" class="st0" width="375.4" height="319.2"/>
<polygon class="st1" points="366.2,309.6 -9.2,309.6 -9.2,306.3 366.2,-9.6 "/>
<title>1</title>
<path class="st2" d="M175.3,33.6H50.5v220.6h166.1V65.9C203.2,38.7,175.3,33.6,175.3,33.6z"/>
<rect x="145.8" y="55.9" class="st3" width="54.7" height="12.1"/>
<rect x="145.8" y="71.4" class="st3" width="54.7" height="3.4"/>
<rect x="145.8" y="75.6" class="st3" width="54.7" height="3.4"/>
<path class="st4" d="M175.3,33.6c12.6,18,6.9,38.4,6.9,38.4c20.3-12,34.4-6.1,34.4-6.1C203.2,38.7,175.3,33.6,175.3,33.6z"/>
<rect x="77.2" y="97.8" class="st1" width="8" height="63.3"/>
<rect x="87.3" y="121.6" class="st5" width="8" height="39.6"/>
<rect x="98.2" y="110.1" class="st6" width="8" height="51"/>
<polygon class="st7" points="70.9,166.4 70.9,78.4 69.8,78.4 69.8,166.4 69.8,166.9 69.8,167.4 158.4,167.4 158.4,166.4 "/>
<rect x="133.8" y="128.2" class="st1" width="8" height="32.9"/>
<rect x="124" y="110.1" class="st5" width="8" height="51"/>
<rect x="144.3" y="116.7" class="st6" width="8" height="44.5"/>
<circle class="st6" cx="125.6" cy="67.9" r="13.8"/>
<rect x="161.4" y="118.5" class="st1" width="10.3" height="10.3"/>
<rect x="161.4" y="135.3" class="st6" width="10.3" height="10.3"/>
<rect x="161.4" y="152" class="st1" width="10.3" height="10.3"/>
<rect x="176.7" y="118.5" class="st3" width="23.8" height="3.1"/>
<rect x="176.7" y="123" class="st3" width="23.8" height="4.5"/>
<rect x="176.7" y="135.3" class="st3" width="23.8" height="3.1"/>
<rect x="176.7" y="139.8" class="st3" width="23.8" height="4.5"/>
<rect x="176.7" y="152" class="st3" width="23.8" height="3.1"/>
<rect x="176.7" y="156.6" class="st3" width="23.8" height="4.5"/>
<rect x="69.8" y="175.8" class="st3" width="68" height="17.2"/>
<rect x="69.8" y="196.6" class="st6" width="28.3" height="27"/>
<rect x="102.1" y="196.6" class="st3" width="35.7" height="1.8"/>
<rect x="102.1" y="200.8" class="st3" width="35.7" height="1.8"/>
<rect x="102.1" y="205" class="st3" width="35.7" height="1.8"/>
<rect x="102.1" y="209.2" class="st3" width="35.7" height="1.8"/>
<rect x="102.1" y="213.4" class="st3" width="35.7" height="1.8"/>
<rect x="102.1" y="217.6" class="st3" width="35.7" height="1.8"/>
<rect x="102.1" y="221.8" class="st3" width="35.7" height="1.8"/>
<rect x="69.8" y="227.8" class="st3" width="68" height="7.1"/>
<rect x="148.3" y="175.8" class="st3" width="52.2" height="4.1"/>
<rect x="148.3" y="184.4" class="st3" width="52.2" height="29.9"/>
<rect x="164.9" y="216.7" class="st3" width="35.7" height="1.8"/>
<rect x="164.9" y="220.9" class="st3" width="35.7" height="1.8"/>
<rect x="164.9" y="225.1" class="st3" width="35.7" height="1.8"/>
<path class="st5" d="M242.3,128.7v65.7H308C308,158.1,278.6,128.7,242.3,128.7z"/>
<path class="st6" d="M237.4,135c-36.3,0-65.7,29.4-65.7,65.7s29.4,65.7,65.7,65.7c19.3,0,36.6-8.3,48.6-21.5l-48.6-44.2V135z"/>
<path class="st8" d="M242.8,198.4l48.6,44.2c10.6-11.7,17.1-27.2,17.1-44.2H242.8z"/>
</svg>
