<?xml version="1.0" encoding="utf-8"?>
<!-- Generator: Adobe Illustrator 23.0.4, SVG Export Plug-In . SVG Version: 6.00 Build 0)  -->
<svg version="1.1" id="Layer_1" xmlns="http://www.w3.org/2000/svg" xmlns:xlink="http://www.w3.org/1999/xlink" x="0px" y="0px"
	 viewBox="0 0 500 300" style="enable-background:new 0 0 500 300;" xml:space="preserve">
<style type="text/css">
	.st0{fill:#CCE404;}
	.st1{fill:#DADADA;}
	.st2{fill:none;}
	.st3{clip-path:url(#SVGID_2_);}
	.st4{fill:#FFFFFF;}
	.st5{fill:#57BE28;}
	.st6{fill:#C6C6C6;}
	.st7{fill:#EEEEEE;}
	.st8{fill:#008500;}
</style>
<rect x="-8.8" y="-5.8" class="st0" width="521.8" height="313.1"/>
<polygon class="st1" points="513,307.3 343.9,307.3 147.3,-5.8 513,-5.8 "/>
<title>1</title>
<g>
	<g>
		<polygon class="st2" points="627.5,87.3 615.6,-105.9 877,17 1118.7,-105.9 1118.7,262 761.3,262 		"/>
	</g>
</g>
<g>
	<defs>
		<polygon id="SVGID_1_" points="10.4,87.3 -1.5,-105.9 259.8,17 501.5,-105.9 501.5,262 144.1,262 		"/>
	</defs>
	<clipPath id="SVGID_2_">
		<use xlink:href="#SVGID_1_"  style="overflow:visible;"/>
	</clipPath>
	<g class="st3">
		<g>
			<g>
				<g>
					<g>
						<g>
							<g>
								<g>
									<g>
										<g>
											<g>
												<g>
													<path class="st4" d="M137.2,42.9h275.4c3.4,0,6.2,2.7,6.2,6.2v375.5c0,3.4-2.7,6.2-6.2,6.2H137.2
														c-3.4,0-6.2-2.7-6.2-6.2V49.1C131,45.7,133.8,42.9,137.2,42.9z"/>
													<polygon class="st5" points="404.6,415.3 145.2,415.3 145.2,58.3 349.5,58.3 404.6,58.3 404.6,118.7 													"/>
													<path class="st6" d="M324.7,42.9c0,4.4-2.7,8-6.2,8h-86.2c-3.4,0-6.2-3.6-6.2-8l0,0c0-4.4,2.7-8,6.2-8h86.2
														C322.1,34.9,324.7,38.5,324.7,42.9z"/>
													<polygon class="st4" points="345,143.3 345,437.4 85.5,437.4 85.5,80.5 283.5,80.5 													"/>
													<polygon class="st7" points="345,143.3 283.5,143.3 283.5,80.5 													"/>
													<rect x="126.6" y="162.1" class="st6" width="180.8" height="11.6"/>
													<rect x="126.6" y="191.4" class="st7" width="181.5" height="3.3"/>
													<rect x="126.6" y="203.7" class="st7" width="181.5" height="3.3"/>
													<rect x="126.6" y="216" class="st7" width="90.7" height="3.3"/>
													<rect x="126.6" y="228.3" class="st7" width="181.5" height="3.3"/>
													<rect x="126.6" y="240.7" class="st7" width="181.5" height="3.3"/>
													<rect x="126.6" y="253" class="st7" width="90.7" height="3.3"/>
													<rect x="126.6" y="265.3" class="st8" width="140.3" height="3.3"/>
													<rect x="126.6" y="277.8" class="st8" width="140.3" height="3.3"/>
													<rect x="126.6" y="290.1" class="st8" width="181.5" height="3.3"/>
													<rect x="126.6" y="302.4" class="st8" width="181.5" height="3.3"/>
													<rect x="126.6" y="314.7" class="st8" width="181.5" height="3.3"/>
													<rect x="126.6" y="327" class="st8" width="88.6" height="3.3"/>
													<rect x="126.6" y="339.4" class="st8" width="181.5" height="3.3"/>
													<rect x="126.6" y="351.7" class="st8" width="181.5" height="3.3"/>
													<rect x="126.6" y="365" class="st8" width="181.5" height="3.3"/>
													<polygon class="st5" points="175.5,101.3 141.4,135.3 128.7,122.6 121.6,129.4 134.6,142.1 141.4,149.2 148.2,142.1 
														182.3,108.4 													"/>
												</g>
											</g>
										</g>
									</g>
								</g>
							</g>
						</g>
					</g>
				</g>
			</g>
		</g>
	</g>
</g>
</svg>
