<?xml version="1.0" encoding="utf-8"?>
<!-- Generator: Adobe Illustrator 23.0.4, SVG Export Plug-In . SVG Version: 6.00 Build 0)  -->
<svg version="1.1" id="Layer_1" xmlns="http://www.w3.org/2000/svg" xmlns:xlink="http://www.w3.org/1999/xlink" x="0px" y="0px"
	 viewBox="0 0 500 300" style="enable-background:new 0 0 500 300;" xml:space="preserve">
<style type="text/css">
	.st0{fill:#CCE404;}
	.st1{fill:#DADADA;}
	.st2{clip-path:url(#SVGID_2_);}
	.st3{opacity:0.2;}
	.st4{fill:#4D4740;}
	.st5{fill:#4C463F;}
	.st6{fill:#4B453F;}
	.st7{fill:#4A453E;}
	.st8{fill:#4A443D;}
	.st9{fill:#49433C;}
	.st10{fill:#48423B;}
	.st11{fill:#FFFFFF;}
	.st12{fill:#57BE28;}
	.st13{fill:#E2E2E2;}
	.st14{fill:#EDEDED;}
</style>
<rect x="-8.8" y="-5.8" class="st0" width="521.8" height="313.1"/>
<polygon class="st1" points="513,307.3 343.9,307.3 147.3,-5.8 513,-5.8 "/>
<title>1</title>
<g>
	<defs>
		<polygon id="SVGID_1_" points="9.9,87.3 -2.1,-105.9 259.3,17 501,-105.9 501,262 143.6,262 		"/>
	</defs>
	<clipPath id="SVGID_2_">
		<use xlink:href="#SVGID_1_"  style="overflow:visible;"/>
	</clipPath>
	<g class="st2">
		<g>
			<g>
				<g>
					<g>
						<g>
							<g>
								<g>
									<g>
										<g>
											<g>
												<g>
													<g>
														<g>
															<g>
																<g class="st3">
																	<path class="st4" d="M344.7,45.9V31.6c0-4.1-4.1-7.4-9.1-7.4s-9.1,3.3-9.1,7.4v14.3h-35.7V31.6
																		c0-4.1-4.1-7.4-9.1-7.4s-8.9,3.3-8.9,7.4v14.3h-36.2V31.6c0-4.1-4.1-7.4-8.9-7.4c-4.9,0-9.1,3.3-9.1,7.4v14.3
																		h-38.7V31.6c0-4.1-4.1-7.4-9.1-7.4s-9.1,3.3-9.1,7.4v14.3h-43.1v265.6h269.2V45.9H344.7z"/>
																	<path class="st5" d="M344.2,45.3V31c0-4.1-4.1-7.4-9.1-7.4S326,26.9,326,31v14.3h-35.7V31c0-4.1-4.1-7.4-9.1-7.4
																		s-8.9,3.3-8.9,7.4v14.3h-36.2V31c0-4.1-4.1-7.4-8.9-7.4c-4.9,0-9.1,3.3-9.1,7.4v14.3h-38.7V31
																		c0-4.1-4.1-7.4-8.9-7.4s-9.1,3.3-9.1,7.4v14.3h-42.9v265.6h268.8V45.3H344.2z"/>
																	<path class="st6" d="M343.8,44.8V30.5c0-4.1-4.1-7.4-9.1-7.4s-9.1,3.3-9.1,7.4v14.3h-35.7V30.5
																		c0-4.1-4.1-7.4-9.1-7.4s-8.9,3.3-8.9,7.4v14.3h-36.2V30.5c0-4.1-4.1-7.4-9.1-7.4s-8.9,3.3-8.9,7.4v14.3H179V30.5
																		c0-4.1-4.1-7.4-8.9-7.4s-9.1,3.3-9.1,7.4v14.3h-43.1v265.6h268.8V44.8H343.8z"/>
																	<path class="st7" d="M343.2,44.4V30.1c0-4.1-4.1-7.4-8.9-7.4c-5,0-9.1,3.3-9.1,7.4v14.3h-35.7V30.1
																		c0-4.1-4.1-7.4-9.1-7.4s-9.1,3.3-9.1,7.4v14.3h-36V30.1c0-4.1-4.1-7.4-9.1-7.4s-9.1,3.3-9.1,7.4v14.3h-38.6V30.1
																		c0-4.1-4.1-7.4-9.1-7.4s-8.9,3.3-8.9,7.4v14.3h-43.1V310h268.8V44.4H343.2z"/>
																	<path class="st8" d="M342.7,43.8V29.5c0-4.1-4.1-7.4-8.9-7.4s-9.1,3.3-9.1,7.4v14.3H289V29.5
																		c0-4.1-4.1-7.4-9.1-7.4s-9.1,3.3-9.1,7.4v14.3h-36.2V29.5c0-4.1-4.1-7.4-9.1-7.4s-8.9,3.3-8.9,7.4v14.3h-38.5V29.5
																		c0-4.1-4.1-7.4-9.1-7.4s-8.9,3.3-8.9,7.4v14.3H117v265.6h268.8V43.8H342.7z"/>
																	<path class="st9" d="M342.1,43.3V29c0-4.1-4.1-7.4-8.9-7.4c-5,0-9.1,3.3-9.1,7.4v14.3h-35.6V29
																		c0-4.1-4.1-7.4-9.1-7.4s-9.1,3.3-9.1,7.4v14.3h-36.2V29c0-4.1-4.1-7.4-9.1-7.4s-8.8,3.3-8.8,7.4v14.3h-38.6V29
																		c0-4.1-4.1-7.4-9.1-7.4s-8.9,3.3-8.9,7.4v14.3h-43.1v265.6h268.8V43.3H342.1z"/>
																	<path class="st10" d="M341.6,42.7V28.4c0-4.1-4.1-7.4-8.9-7.4c-5,0-9.1,3.3-9.1,7.4v14.3h-35.7V28.4
																		c0-4.1-4.1-7.4-9.1-7.4s-9.1,3.3-9.1,7.4v14.3h-36.2V28.4c0-4.1-4.1-7.4-9.1-7.4s-8.9,3.3-8.9,7.4v14.3h-38.6V28.4
																		c0-4.1-4.1-7.4-9.1-7.4s-8.9,3.3-8.9,7.4v14.3h-43.1v265.6h268.8V42.7H341.6z"/>
																</g>
															</g>
														</g>
													</g>
												</g>
												<g>
													<g>
														<g>
															<g>
																<rect x="115.1" y="42.9" class="st11" width="268.8" height="265.6"/>
															</g>
														</g>
													</g>
												</g>
												<g>
													<g>
														<g>
															<g>
																<rect x="115.1" y="80.2" class="st12" width="268.8" height="7.9"/>
															</g>
														</g>
													</g>
												</g>
												<g>
													<g>
														<g>
															<g>
																<rect x="115.1" y="90.1" class="st13" width="268.8" height="7.9"/>
															</g>
														</g>
													</g>
												</g>
												<g>
													<g>
														<g>
															<g>
																<rect x="147.5" y="132.3" class="st13" width="42.5" height="42.5"/>
															</g>
														</g>
													</g>
												</g>
												<g>
													<g>
														<g>
															<g>
																<rect x="201.1" y="132.3" class="st12" width="42.5" height="42.5"/>
															</g>
														</g>
													</g>
												</g>
												<g>
													<g>
														<g>
															<g>
																<rect x="255.1" y="132.3" class="st13" width="42.5" height="42.5"/>
															</g>
														</g>
													</g>
												</g>
												<g>
													<g>
														<g>
															<g>
																<rect x="309.1" y="132.3" class="st12" width="42.5" height="42.5"/>
															</g>
														</g>
													</g>
												</g>
												<g>
													<g>
														<g>
															<g>
																<rect x="147.3" y="184.5" class="st12" width="42.5" height="42.5"/>
															</g>
														</g>
													</g>
												</g>
												<g>
													<g>
														<g>
															<g>
																<rect x="200.9" y="184.5" class="st13" width="42.5" height="42.5"/>
															</g>
														</g>
													</g>
												</g>
												<g>
													<g>
														<g>
															<g>
																<rect x="254.9" y="184.5" class="st11" width="42.5" height="42.5"/>
															</g>
														</g>
													</g>
												</g>
												<g>
													<g>
														<g>
															<g>
																<rect x="308.8" y="184.5" class="st13" width="42.5" height="42.5"/>
															</g>
														</g>
													</g>
												</g>
												<g>
													<g>
														<g>
															<g>
																<rect x="147.3" y="236.6" class="st11" width="42.5" height="42.5"/>
															</g>
														</g>
													</g>
												</g>
												<g>
													<g>
														<g>
															<g>
																<rect x="200.9" y="236.6" class="st13" width="42.5" height="42.5"/>
															</g>
														</g>
													</g>
												</g>
												<g>
													<g>
														<g>
															<g>
																<rect x="254.9" y="236.6" class="st13" width="42.5" height="42.5"/>
															</g>
														</g>
													</g>
												</g>
												<g>
													<g>
														<g>
															<g>
																<rect x="308.8" y="236.6" class="st13" width="42.5" height="42.5"/>
															</g>
														</g>
													</g>
												</g>
												<g>
													<g>
														<g>
															<g>
																<path class="st14" d="M176.2,28.6c0-4.1-4.1-7.4-8.9-7.4l0,0c-5,0-9.1,3.3-9.1,7.4v28.6c0,4.1,4.1,7.4,9.1,7.4l0,0
																	c5,0,8.9-3.3,8.9-7.4V28.6z"/>
															</g>
														</g>
													</g>
												</g>
												<g>
													<g>
														<g>
															<g>
																<path class="st14" d="M232.8,28.6c0-4.1-4.1-7.4-9.1-7.4l0,0c-5,0-8.9,3.3-8.9,7.4v28.6c0,4.1,4.1,7.4,8.9,7.4l0,0
																	c5,0,9.1-3.3,9.1-7.4V28.6z"/>
															</g>
														</g>
													</g>
												</g>
												<g>
													<g>
														<g>
															<g>
																<path class="st14" d="M287,28.6c0-4.1-4.1-7.4-9.1-7.4l0,0c-5,0-8.9,3.3-8.9,7.4v28.6c0,4.1,4.1,7.4,8.9,7.4l0,0
																	c5,0,9.1-3.3,9.1-7.4V28.6z"/>
															</g>
														</g>
													</g>
												</g>
												<g>
													<g>
														<g>
															<g>
																<path class="st14" d="M340.9,28.6c0-4.1-4.1-7.4-9.1-7.4l0,0c-5,0-9.1,3.3-9.1,7.4v28.6c0,4.1,4.1,7.4,9.1,7.4l0,0
																	c5,0,9.1-3.3,9.1-7.4V28.6z"/>
															</g>
														</g>
													</g>
												</g>
											</g>
										</g>
									</g>
								</g>
							</g>
						</g>
					</g>
				</g>
			</g>
		</g>
	</g>
</g>
</svg>
