<?xml version="1.0" encoding="utf-8"?>
<!-- Generator: Adobe Illustrator 23.0.4, SVG Export Plug-In . SVG Version: 6.00 Build 0)  -->
<svg version="1.1" id="Layer_1" xmlns="http://www.w3.org/2000/svg" xmlns:xlink="http://www.w3.org/1999/xlink" x="0px" y="0px"
	 viewBox="0 0 500 300" style="enable-background:new 0 0 500 300;" xml:space="preserve">
<style type="text/css">
	.st0{fill:#CCE404;}
	.st1{fill:#DADADA;}
	.st2{clip-path:url(#SVGID_2_);}
	.st3{fill:none;}
	.st4{opacity:0.2;}
	.st5{fill:#4F4A43;}
	.st6{fill:#4F4942;}
	.st7{fill:#4E4841;}
	.st8{fill:#4D4740;}
	.st9{fill:#4C463F;}
	.st10{fill:#4B453F;}
	.st11{fill:#4A453E;}
	.st12{fill:#4A443D;}
	.st13{fill:#49433C;}
	.st14{fill:#48423B;}
	.st15{fill:#186D00;}
	.st16{fill:#57BE28;}
	.st17{fill:#FFFFFF;}
	.st18{fill:#C6C6C6;}
</style>
<rect x="-8.8" y="-5.8" class="st0" width="521.8" height="313.1"/>
<polygon class="st1" points="513,307.3 343.9,307.3 147.3,-5.8 513,-5.8 "/>
<title>1</title>
<title>1</title>
<g>
	<defs>
		<polygon id="SVGID_1_" points="7.4,87.3 -4.6,-105.9 256.8,17 498.5,-105.9 498.5,262 141.1,262 		"/>
	</defs>
	<clipPath id="SVGID_2_">
		<use xlink:href="#SVGID_1_"  style="overflow:visible;"/>
	</clipPath>
	<g class="st2">
		<g>
			<g>
				<g>
					<g>
						<g>
							<g>
								<g>
									<g>
										<g>
											<polygon class="st3" points="-15.3,87.3 -3.1,-105.9 258.3,17 500,-105.9 500,181.6 175,262 											"/>
											<g id="OBJECTS">
												<g class="st4">
													<polygon class="st5" points="135,156 247,257.5 351.5,162.8 416.5,103.8 351.5,103.8 351.5,35.5 135,35.5 135,103.8 
														77.5,103.8 													"/>
													<polygon class="st6" points="134.6,155.6 246.6,257.1 351.1,162.3 416.2,103.5 351.1,103.5 351.1,35 134.6,35 
														134.6,103.5 77.1,103.5 													"/>
													<polygon class="st7" points="134.3,155.1 246.3,256.6 350.8,162 415.8,103 350.8,103 350.8,34.5 134.3,34.5 134.3,103 
														76.7,103 													"/>
													<polygon class="st8" points="133.9,154.7 245.9,256.2 350.4,161.5 415.4,102.5 350.4,102.5 350.4,34.1 133.9,34.1 
														133.9,102.5 76.4,102.5 													"/>
													<polygon class="st9" points="133.5,154.2 245.5,255.7 350.1,161 415.1,102.2 350.1,102.2 350.1,33.6 133.5,33.6 
														133.5,102.2 76,102.2 													"/>
													<polygon class="st10" points="133,153.8 245.2,255.2 349.6,160.6 414.6,101.7 349.6,101.7 349.6,33.2 133,33.2 
														133,101.7 75.7,101.7 													"/>
													<polygon class="st11" points="132.7,153.4 244.8,254.9 349.2,160.2 414.2,101.2 349.2,101.2 349.2,32.8 132.7,32.8 
														132.7,101.2 75.3,101.2 													"/>
													<polygon class="st12" points="132.3,152.9 244.3,254.4 348.9,159.7 413.9,100.8 348.9,100.8 348.9,32.3 132.3,32.3 
														132.3,100.8 74.9,100.8 													"/>
													<polygon class="st13" points="132,152.4 244,253.9 348.5,159.3 413.5,100.3 348.5,100.3 348.5,31.8 132,31.8 
														132,100.3 74.6,100.3 													"/>
													<polygon class="st14" points="131.6,152.1 243.6,253.6 348.1,158.8 413.1,99.9 348.1,99.9 348.1,31.5 131.6,31.5 
														131.6,99.9 74.1,99.9 													"/>
												</g>
												<polygon class="st15" points="413.1,100 348.1,158.8 243.6,253.6 131.6,152.1 74.1,100 												"/>
												<polygon class="st16" points="413.1,99.3 413.1,304.4 74.1,304.4 74.1,99.3 243.6,254.2 												"/>
												<polygon class="st17" points="348.1,31.5 348.1,158.8 243.6,253.6 131.6,152.1 131.6,31.5 												"/>
												<rect x="74.1" y="276.9" class="st17" width="339.1" height="9.5"/>
												<rect x="144.8" y="53.1" class="st16" width="95.1" height="8"/>
												<rect x="144.8" y="69.9" class="st16" width="186.6" height="8"/>
												<rect x="144.8" y="85.7" class="st16" width="186.6" height="8"/>
												<rect x="144.8" y="101.6" class="st18" width="186.6" height="8"/>
												<rect x="144.8" y="117.5" class="st18" width="186.6" height="8"/>
												<rect x="144.8" y="133.3" class="st18" width="186.6" height="8"/>
											</g>
										</g>
									</g>
								</g>
							</g>
						</g>
					</g>
				</g>
			</g>
		</g>
	</g>
</g>
</svg>
